<svg width="645" height="288" viewBox="0 0 645 288" fill="none" xmlns="http://www.w3.org/2000/svg">
<path d="M118.293 285.179C80.764 233.728 102.183 181.995 145.424 152.637C189.38 122.792 139.757 61.0461 227.245 35.9211C272.503 22.9231 312.303 58.3701 356.665 59.9101C396.415 61.2911 437.536 30.0311 477.896 44.5121C504.884 52.8481 531.865 76.2421 529.853 104.214C528.814 118.668 519.607 135.78 529.14 146.76C569.37 193.103 565.224 233.638 549.456 284.53C549.461 284.528 118.293 285.179 118.293 285.179Z" fill="#D9DDE1"/>
<path d="M244.24 224.048H191.268V208.314L248.596 119.522H268.506V202.894H285.393V224.048H268.506V244.489H244.24V224.048ZM245.931 204.138V159.25L218.11 204.138H245.931Z" fill="#767677"/>
<path d="M457.536 179.964C469.535 185.476 477.267 195.964 477.267 210.54C477.267 232.048 459.314 246.001 435.05 246.001C412.828 246.001 396.384 234.27 390.251 218.538L411.763 209.56C415.138 218.448 422.072 223.692 433.359 223.692C443.314 223.692 451.845 217.471 451.845 207.071C451.845 198.005 445.002 190.361 431.224 190.361H422.248V170.274H433.27C444.469 170.274 449.446 163.608 449.446 155.52C449.446 146.452 442.158 140.32 432.914 140.32C423.757 140.32 418.336 144.408 414.69 150.808L394.961 140.231C400.649 127.343 415.048 118.01 433.446 118.01C455.757 118.01 473.619 130.01 473.619 151.428C473.619 163.516 467.575 173.562 457.532 179.514V179.959L457.536 179.964Z" fill="#767677"/>
<path d="M312.078 198.96C312.078 184.209 324.08 172.205 338.834 172.205C353.586 172.205 365.588 184.209 365.588 198.96C365.588 213.714 353.586 225.718 338.834 225.718C324.08 225.719 312.078 213.715 312.078 198.96ZM338.422 138.128H339.244C349.076 138.128 357.086 146.073 357.19 155.881C351.418 153.419 345.134 152.127 338.834 152.127C332.531 152.127 326.248 153.419 320.476 155.881C320.58 146.074 328.59 138.128 338.422 138.128ZM338.422 118.051C317.453 118.051 300.396 135.108 300.396 156.075V172.233C294.9 180.111 292 189.337 292 198.96C292 224.785 313.01 245.794 338.834 245.794C364.658 245.794 385.666 224.784 385.666 198.96C385.666 189.334 382.766 180.108 377.27 172.233V156.075C377.27 135.107 360.21 118.051 339.244 118.051H338.422Z" fill="url(#paint0_linear_3165_4)"/>
<path d="M338.991 212.134H338.676C337.404 212.134 336.364 211.093 336.364 209.822V193.7C336.364 192.43 337.404 191.389 338.676 191.389H338.991C340.262 191.389 341.303 192.43 341.303 193.7V209.821C341.303 211.093 340.262 212.134 338.991 212.134Z" fill="#767677"/>
<path d="M332.412 193.858C332.412 197.405 335.287 200.28 338.834 200.28C342.379 200.28 345.254 197.405 345.254 193.858C345.254 190.313 342.379 187.438 338.834 187.438C335.287 187.438 332.412 190.313 332.412 193.858Z" fill="url(#paint1_linear_3165_4)"/>
<path d="M345.254 187.438H332.412V200.28H345.254V187.438Z" fill="url(#paint2_linear_3165_4)"/>
<path fill-rule="evenodd" clip-rule="evenodd" d="M99.039 235.011C99.039 235.011 79.987 225.185 83.48 201.06C86.972 176.935 72.219 169.306 68.476 162.129C64.732 154.952 73.124 143.377 72.17 133.242C71.216 123.108 59.527 120.397 65.004 106.494C70.482 92.594 65.849 87.314 58.637 72.422C51.426 57.531 62.112 34.773 67.189 34.899C72.268 35.024 66.076 40.347 70.54 50.246C75.004 60.144 93.832 63.158 99.724 71.436C105.615 79.712 95.26 90.679 101.982 101.852C108.704 113.025 128.735 109.559 134.032 120.402C139.329 131.244 126.701 144.238 130.373 155.605C134.046 166.972 147.574 173.413 153.267 182.547C158.96 191.678 169.623 209.172 152.162 230.059C134.699 250.944 99.039 235.011 99.039 235.011Z" fill="#B1B1B1"/>
<path fill-rule="evenodd" clip-rule="evenodd" d="M65.1 55.5528C64.854 54.9138 65.172 54.1978 65.81 53.9518C66.45 53.7048 67.166 54.0238 67.413 54.6618L146.223 259.393L143.257 258.586L65.1 55.5528Z" fill="#CCCCCC"/>
<path fill-rule="evenodd" clip-rule="evenodd" d="M83.245 210.542C83.145 209.591 83.083 208.608 83.062 207.597L134.827 236.688L130.247 224.791C130.225 224.742 130.204 224.689 130.188 224.639L127.841 218.539L84.009 193.905C84.006 192.903 83.969 191.934 83.9 191L126.443 214.908L122.301 204.147L81.808 181.392C81.287 180.023 80.696 178.751 80.057 177.563L120.904 200.517L118.847 195.173C118.823 195.12 118.801 195.067 118.784 195.011L109.789 171.644L69.257 148.865C69.495 148.063 69.744 147.251 69.99 146.434L108.392 168.014L103.901 156.348L71.967 138.402C72.103 137.499 72.195 136.599 72.23 135.705L102.503 152.718L99.126 143.942C99.107 143.902 99.092 143.859 99.078 143.818L89.263 118.321L65.564 105.004C65.862 104.172 66.12 103.371 66.342 102.596L87.866 114.692L79.296 92.4309C79.277 92.3889 79.26 92.3459 79.246 92.3009L65.1 55.5529C64.855 54.9139 65.172 54.1979 65.811 53.9519C66.45 53.7049 67.167 54.0229 67.413 54.6619L80.267 88.0539L87.613 62.9589C88.372 63.3419 89.124 63.7239 89.864 64.1089L81.736 91.8699L91.395 116.961C91.409 116.993 91.422 117.028 91.433 117.062L100.366 140.265L114.469 110.028C115.263 110.283 116.063 110.525 116.866 110.762L101.604 143.483L105.008 152.327L123.591 112.8C124.39 113.073 125.17 113.363 125.924 113.676L106.511 154.969L106.807 155.135C107.404 155.47 107.618 156.225 107.283 156.822C107.186 156.996 107.054 157.138 106.901 157.241L111.918 170.275C111.934 170.314 111.949 170.351 111.961 170.389L120.084 191.488L133.849 162.211C134.391 162.951 134.968 163.672 135.575 164.378L121.319 194.7L123.409 200.126L138.673 167.656C139.295 168.266 139.93 168.865 140.572 169.459L124.644 203.336L129.972 217.174C129.987 217.209 130 217.244 130.013 217.28L131.487 221.11L151.041 179.517C151.653 180.244 152.223 180.982 152.742 181.74L132.723 224.321L138.356 238.953C138.371 238.987 138.384 239.021 138.395 239.058L138.413 239.101C137.437 239.405 136.449 239.665 135.455 239.882L83.245 210.542Z" fill="#CCCCCC"/>
<path fill-rule="evenodd" clip-rule="evenodd" d="M90.178 285.591C84.936 281.513 79.549 279.663 76.697 277.026C71.019 271.773 74.846 258.66 70.727 249.849C66.606 241.037 55.218 242.361 55.673 228.091C56.127 213.82 50.259 210.563 38.978 199.485C27.699 188.407 29.99 164.495 34.599 162.974C39.207 161.452 35.35 168.235 42.552 175.704C49.753 183.172 67.662 179.826 75.627 185.377C83.591 190.926 77.803 204.125 87.446 212.014C97.09 219.905 113.995 210.34 122.249 218.391C130.504 226.441 123.324 242.194 130.286 251.239C137.248 260.284 151.491 261.727 159.553 268.11C164.085 271.698 170.88 277.16 174.364 285.592H90.178V285.591Z" fill="#CCCCCC"/>
<path fill-rule="evenodd" clip-rule="evenodd" d="M128.381 285.591L116.927 272.292L73.132 264.841C73.089 264.042 73.051 263.234 73.009 262.417L114.503 269.474L106.708 260.427L72.204 254.556C72.035 253.7 71.827 252.86 71.572 252.046L104.283 257.61L98.42 250.801C98.39 250.77 98.363 250.737 98.336 250.702L81.302 230.924L55.696 226.569C55.696 225.723 55.67 224.921 55.621 224.153L78.877 228.107L64.004 210.838C63.972 210.805 63.944 210.772 63.917 210.736L39.366 182.228C38.938 181.733 38.994 180.985 39.489 180.558C39.984 180.13 40.733 180.186 41.159 180.683L63.469 206.587L62.003 181.647C62.808 181.746 63.609 181.847 64.398 181.957L66.019 209.549L82.782 229.014C82.806 229.039 82.828 229.066 82.849 229.092L98.353 247.094L101.311 215.353C102.106 215.326 102.905 215.286 103.703 215.24L100.502 249.591L106.411 256.45L110.409 214.911C111.217 214.901 112.011 214.909 112.79 214.947L108.613 258.344L108.932 258.401C109.577 258.508 110.012 259.118 109.904 259.764C109.873 259.951 109.799 260.121 109.695 260.264L118.403 270.375C118.429 270.403 118.455 270.434 118.478 270.465L131.506 285.59H128.381V285.591ZM132.696 285.591L135.539 256.065C136.264 256.556 137.016 257.02 137.788 257.459L135.08 285.592H132.696V285.591ZM139.111 285.591L141.631 259.41C142.387 259.759 143.151 260.093 143.92 260.421L141.496 285.591H139.111ZM154.699 285.591L156.575 266.103C157.36 266.558 158.111 267.041 158.821 267.556L157.084 285.591H154.699Z" fill="#E0E8F5"/>
<path fill-rule="evenodd" clip-rule="evenodd" d="M581.744 226.679C582.803 225.62 584.265 224.968 585.881 224.968C587.497 224.968 588.959 225.62 590.018 226.679C591.077 227.737 591.732 229.2 591.732 230.818C591.732 232.433 591.077 233.895 590.018 234.952C588.959 236.012 587.497 236.668 585.881 236.668C584.265 236.668 582.803 236.012 581.744 234.952C580.686 233.895 580.031 232.433 580.031 230.818C580.031 229.2 580.687 227.736 581.744 226.679ZM583.008 220.882C582.197 221.114 581.428 221.444 580.715 221.859C579.984 222.281 579.309 222.793 578.703 223.375C578.586 223.487 578.41 223.506 578.275 223.428L575.556 221.858L575.542 221.848C575.386 221.764 575.208 221.748 575.046 221.791C574.878 221.838 574.728 221.944 574.636 222.103L574.624 222.123L572.712 225.435C572.62 225.595 572.602 225.779 572.647 225.946C572.692 226.113 572.8 226.263 572.96 226.356L572.979 226.367L575.675 227.926C575.816 228.006 575.88 228.168 575.843 228.321C575.745 228.723 575.669 229.135 575.616 229.559C575.567 229.969 575.542 230.389 575.542 230.819C575.542 231.247 575.567 231.667 575.616 232.078C575.669 232.501 575.745 232.915 575.845 233.314C575.884 233.481 575.802 233.649 575.655 233.721L572.961 235.278V235.279C572.801 235.372 572.692 235.521 572.648 235.688C572.603 235.856 572.622 236.04 572.713 236.199L574.637 239.53C574.729 239.693 574.879 239.8 575.047 239.844C575.213 239.889 575.398 239.869 575.557 239.778L575.578 239.768L578.278 238.209C578.419 238.127 578.592 238.152 578.704 238.26C579.309 238.842 579.984 239.353 580.716 239.777C581.435 240.191 582.208 240.523 583.025 240.756C583.183 240.803 583.286 240.945 583.286 241.105V244.239C583.286 244.423 583.362 244.593 583.484 244.716C583.606 244.837 583.774 244.911 583.959 244.911H587.807C587.992 244.911 588.161 244.837 588.283 244.716C588.405 244.593 588.481 244.423 588.481 244.239V241.103C588.481 240.932 588.598 240.791 588.756 240.752C589.568 240.519 590.336 240.19 591.049 239.776C591.781 239.352 592.457 238.841 593.061 238.259C593.184 238.142 593.371 238.128 593.508 238.218L596.207 239.778C596.366 239.869 596.551 239.888 596.719 239.843C596.885 239.798 597.035 239.692 597.127 239.529L597.139 239.511L599.053 236.198H599.051C599.145 236.037 599.162 235.855 599.116 235.687C599.072 235.52 598.965 235.371 598.806 235.278L596.089 233.711C595.947 233.629 595.882 233.465 595.919 233.315C596.019 232.915 596.095 232.501 596.146 232.078C596.197 231.667 596.222 231.247 596.222 230.819C596.222 230.389 596.197 229.969 596.146 229.557C596.095 229.135 596.019 228.723 595.919 228.321C595.878 228.155 595.96 227.987 596.108 227.915L598.805 226.357C598.963 226.264 599.071 226.114 599.115 225.947C599.161 225.78 599.143 225.596 599.05 225.438L599.04 225.418L597.128 222.104H597.126C597.034 221.945 596.884 221.838 596.718 221.792C596.55 221.747 596.366 221.765 596.206 221.857V221.858L593.488 223.428C593.342 223.51 593.163 223.484 593.051 223.366C592.448 222.787 591.776 222.278 591.047 221.859C590.33 221.442 589.555 221.112 588.739 220.879C588.582 220.832 588.478 220.69 588.478 220.531V217.397C588.478 217.21 588.402 217.043 588.28 216.921C588.158 216.798 587.989 216.724 587.804 216.724H583.956C583.771 216.724 583.603 216.798 583.481 216.921C583.359 217.042 583.283 217.21 583.283 217.397V220.531C583.284 220.701 583.168 220.845 583.008 220.882Z" fill="#CCCCCC"/>
<path fill-rule="evenodd" clip-rule="evenodd" d="M540.725 169.7C541.993 168.432 543.51 167.408 545.202 166.708C546.829 166.035 548.608 165.663 550.472 165.663C552.336 165.663 554.115 166.035 555.74 166.708C557.431 167.408 558.951 168.432 560.219 169.7C561.487 170.968 562.51 172.487 563.211 174.179C563.883 175.804 564.256 177.582 564.256 179.447C564.256 181.31 563.883 183.089 563.211 184.716C562.51 186.407 561.486 187.926 560.219 189.194C558.952 190.462 557.433 191.485 555.742 192.184C554.117 192.86 552.336 193.231 550.472 193.231C548.608 193.231 546.829 192.86 545.204 192.186C543.513 191.485 541.993 190.461 540.725 189.194C539.457 187.927 538.433 186.408 537.733 184.716C537.06 183.09 536.688 181.311 536.688 179.447C536.688 177.583 537.06 175.804 537.733 174.179C538.433 172.487 539.457 170.968 540.725 169.7ZM545.685 167.885C544.161 168.517 542.784 169.448 541.627 170.602C540.472 171.758 539.541 173.135 538.91 174.662C538.299 176.132 537.963 177.748 537.963 179.446C537.963 181.143 538.299 182.76 538.91 184.231C539.541 185.755 540.472 187.133 541.627 188.289C542.783 189.444 544.16 190.374 545.686 191.007C547.157 191.617 548.773 191.953 550.471 191.953C552.166 191.953 553.783 191.617 555.252 191.007C556.781 190.375 558.158 189.445 559.314 188.289C560.47 187.133 561.4 185.756 562.032 184.231C562.641 182.76 562.977 181.143 562.977 179.446C562.977 177.748 562.641 176.132 562.032 174.662C561.4 173.136 560.47 171.759 559.314 170.602C558.159 169.448 556.782 168.517 555.254 167.885C553.785 167.276 552.168 166.939 550.471 166.939C548.772 166.939 547.156 167.276 545.685 167.885ZM544.162 157.743C543.299 157.992 542.451 158.295 541.623 158.649C540.781 159.006 539.965 159.413 539.183 159.867C538.387 160.327 537.62 160.835 536.883 161.39C536.145 161.948 535.444 162.545 534.785 163.182C534.551 163.407 534.258 163.539 533.959 163.575C533.653 163.613 533.336 163.55 533.061 163.39C531.038 162.222 528.909 161.065 526.926 159.848C526.83 159.798 526.729 159.767 526.629 159.756C526.514 159.744 526.399 159.752 526.289 159.783C526.178 159.813 526.072 159.864 525.979 159.934C525.892 160 525.814 160.086 525.755 160.188C524.28 162.42 522.798 165.305 521.433 167.672C521.374 167.774 521.339 167.882 521.326 167.991C521.31 168.103 521.32 168.223 521.351 168.338C521.38 168.451 521.432 168.556 521.501 168.648C521.568 168.737 521.655 168.813 521.755 168.872C523.577 170.076 525.921 171.281 527.853 172.395C528.137 172.557 528.343 172.801 528.46 173.079C528.501 173.175 528.532 173.274 528.552 173.379L528.678 173.42L528.536 173.99C528.427 174.436 528.329 174.884 528.247 175.329C528.167 175.763 528.099 176.216 528.042 176.688C527.985 177.149 527.942 177.608 527.917 178.059C527.89 178.501 527.876 178.964 527.876 179.446C527.876 179.926 527.89 180.389 527.917 180.83C527.942 181.284 527.985 181.741 528.042 182.203C528.099 182.677 528.167 183.129 528.247 183.563C528.329 184.008 528.427 184.455 528.536 184.903C528.618 185.235 528.579 185.567 528.446 185.854C528.313 186.139 528.087 186.379 527.792 186.531L522.394 189.649L522.396 189.651L521.755 190.02C521.653 190.079 521.568 190.156 521.501 190.244C521.432 190.334 521.38 190.44 521.351 190.554C521.32 190.669 521.31 190.789 521.326 190.904C521.34 191.011 521.375 191.121 521.433 191.22L525.43 198.146H525.432L525.755 198.706C525.814 198.807 525.892 198.893 525.979 198.959C526.072 199.029 526.177 199.081 526.289 199.111C526.404 199.14 526.523 199.15 526.637 199.136C526.744 199.122 526.852 199.086 526.953 199.029C528.887 197.814 531.068 196.654 533.063 195.502C533.349 195.34 533.66 195.285 533.955 195.32C534.264 195.355 534.554 195.491 534.781 195.708L534.785 195.712C535.444 196.348 536.145 196.947 536.885 197.504C537.619 198.057 538.387 198.566 539.183 199.025C539.971 199.48 540.791 199.892 541.639 200.252C542.471 200.606 543.334 200.913 544.224 201.167C544.537 201.256 544.797 201.443 544.98 201.686C545.167 201.932 545.272 202.237 545.272 202.559L545.274 209.604C545.274 209.721 545.297 209.834 545.34 209.934C545.383 210.04 545.449 210.137 545.533 210.219C545.611 210.301 545.709 210.366 545.816 210.412C545.916 210.453 546.028 210.476 546.147 210.476H554.793C554.912 210.476 555.023 210.453 555.125 210.412C555.232 210.366 555.33 210.301 555.41 210.221C555.492 210.137 555.558 210.04 555.601 209.934C555.643 209.834 555.665 209.721 555.665 209.604V202.557C555.665 202.221 555.782 201.911 555.978 201.664C556.177 201.411 556.457 201.225 556.778 201.15C557.64 200.9 558.489 200.597 559.317 200.245C560.159 199.887 560.974 199.478 561.756 199.025C562.553 198.566 563.32 198.056 564.055 197.503C564.793 196.947 565.494 196.348 566.155 195.711C566.4 195.477 566.708 195.344 567.023 195.315C567.344 195.288 567.672 195.364 567.95 195.548L573.982 199.029C574.083 199.087 574.191 199.123 574.302 199.136C574.414 199.152 574.533 199.14 574.65 199.111C574.762 199.081 574.868 199.029 574.96 198.959C575.048 198.893 575.124 198.807 575.185 198.706C576.617 196.206 578.074 193.719 579.507 191.221C579.565 191.12 579.601 191.012 579.614 190.903C579.628 190.79 579.62 190.67 579.589 190.555C579.559 190.442 579.507 190.334 579.439 190.244C579.373 190.154 579.289 190.079 579.189 190.021L573.085 186.498C572.804 186.336 572.597 186.092 572.478 185.814C572.447 185.741 572.421 185.664 572.402 185.583L572.244 185.551L572.402 184.905C572.514 184.458 572.61 184.01 572.691 183.565C572.771 183.131 572.839 182.678 572.897 182.205C572.955 181.743 572.998 181.286 573.023 180.832C573.05 180.392 573.063 179.929 573.063 179.448C573.063 178.967 573.05 178.505 573.023 178.063C572.998 177.612 572.955 177.153 572.898 176.692C572.839 176.213 572.771 175.758 572.691 175.329C572.61 174.884 572.514 174.436 572.402 173.992C572.322 173.659 572.361 173.323 572.496 173.038C572.629 172.752 572.854 172.513 573.143 172.364L579.186 168.874C579.287 168.819 579.371 168.742 579.439 168.651C579.507 168.563 579.559 168.457 579.589 168.34C579.62 168.225 579.628 168.108 579.614 167.995C579.6 167.884 579.564 167.777 579.507 167.675C578.03 165.481 576.554 162.549 575.185 160.19C575.124 160.088 575.048 160.002 574.96 159.936C574.87 159.866 574.763 159.815 574.65 159.785C574.536 159.753 574.415 159.745 574.303 159.758C574.196 159.772 574.086 159.808 573.983 159.868L567.878 163.392C567.591 163.56 567.269 163.616 566.962 163.575C566.655 163.533 566.364 163.392 566.138 163.166C565.475 162.528 564.775 161.932 564.048 161.384C563.321 160.837 562.558 160.332 561.757 159.869C560.969 159.414 560.149 159.003 559.3 158.644C558.469 158.29 557.606 157.984 556.716 157.729C556.404 157.638 556.143 157.453 555.96 157.209C555.774 156.963 555.667 156.658 555.667 156.338L555.665 149.292C555.665 149.173 555.643 149.061 555.601 148.961C555.558 148.857 555.492 148.76 555.41 148.677C555.33 148.595 555.232 148.53 555.125 148.484C555.023 148.443 554.912 148.42 554.793 148.42H546.147C546.028 148.42 545.916 148.443 545.816 148.484C545.709 148.529 545.611 148.595 545.531 148.675C545.373 148.836 545.273 149.054 545.273 149.292V156.338C545.273 156.675 545.158 156.986 544.962 157.233C544.762 157.483 544.481 157.668 544.162 157.743ZM541.123 157.476C540.234 157.854 539.373 158.286 538.543 158.765C537.699 159.253 536.888 159.791 536.115 160.373C535.342 160.956 534.601 161.588 533.9 162.264C533.875 162.29 533.841 162.305 533.804 162.309C533.768 162.313 533.729 162.306 533.699 162.288C531.645 161.104 529.59 159.923 527.541 158.733C527.297 158.6 527.035 158.52 526.77 158.49C526.498 158.458 526.222 158.48 525.958 158.55C525.689 158.622 525.433 158.748 525.206 158.92C524.987 159.087 524.798 159.298 524.652 159.55C523.165 161.958 521.753 164.57 520.329 167.034C520.185 167.285 520.097 167.556 520.061 167.83C520.025 168.116 520.045 168.4 520.118 168.668C520.189 168.938 520.315 169.195 520.489 169.421C520.655 169.64 520.866 169.83 521.118 169.975C523.081 171.186 525.21 172.338 527.22 173.497C527.251 173.517 527.275 173.544 527.288 173.577C527.304 173.61 527.308 173.649 527.298 173.684L527.159 174.253L527.165 174.255C527.104 174.532 527.048 174.815 526.995 175.1C526.905 175.587 526.833 176.069 526.774 176.538C526.718 177.007 526.674 177.489 526.644 177.985C526.614 178.483 526.599 178.971 526.599 179.446C526.599 179.921 526.614 180.408 526.644 180.905C526.674 181.401 526.718 181.885 526.774 182.352C526.833 182.824 526.907 183.303 526.995 183.79C527.085 184.275 527.187 184.747 527.3 185.206C527.31 185.245 527.306 185.283 527.288 185.316C527.271 185.353 527.245 185.382 527.214 185.398C524.972 186.597 522.694 188.004 520.478 189.287L520.558 189.385L520.49 189.469C520.316 189.698 520.19 189.954 520.119 190.225C520.047 190.493 520.026 190.778 520.062 191.061C520.097 191.335 520.186 191.608 520.332 191.858L524.977 199.903L525.063 199.852C525.109 199.893 525.157 199.934 525.208 199.971C525.435 200.143 525.691 200.27 525.96 200.342C526.229 200.413 526.514 200.434 526.796 200.397C527.064 200.364 527.327 200.28 527.571 200.141C529.603 199.063 531.696 197.76 533.702 196.602C533.732 196.585 533.769 196.581 533.805 196.583C533.843 196.588 533.878 196.605 533.906 196.63C534.605 197.305 535.345 197.938 536.119 198.52C536.89 199.1 537.701 199.639 538.545 200.125C539.379 200.609 540.248 201.042 541.142 201.422C542.03 201.799 542.944 202.125 543.875 202.393C543.914 202.403 543.944 202.424 543.965 202.453C543.988 202.483 544.002 202.52 544 202.557V209.602C544 209.889 544.059 210.166 544.164 210.42C544.274 210.686 544.435 210.922 544.633 211.119C544.832 211.318 545.069 211.476 545.33 211.585C545.584 211.693 545.86 211.75 546.149 211.75H554.795C555.082 211.75 555.36 211.693 555.615 211.585C555.877 211.477 556.113 211.316 556.313 211.119C556.509 210.922 556.669 210.685 556.78 210.42C556.886 210.166 556.944 209.889 556.944 209.602V202.555C556.944 202.514 556.957 202.477 556.978 202.45C557.001 202.421 557.035 202.399 557.076 202.391L557.102 202.38C558.04 202.109 558.947 201.787 559.819 201.415C560.707 201.037 561.568 200.605 562.398 200.125C563.244 199.639 564.054 199.1 564.826 198.52C565.6 197.936 566.34 197.303 567.041 196.627C567.07 196.598 567.106 196.583 567.142 196.58C567.178 196.577 567.219 196.585 567.25 196.607L573.354 200.129C573.604 200.273 573.874 200.362 574.146 200.396C574.428 200.433 574.713 200.413 574.983 200.341C575.253 200.269 575.51 200.144 575.737 199.97C575.95 199.808 576.135 199.601 576.279 199.359C577.882 196.783 579.396 193.958 580.926 191.31L580.844 191.261C580.859 191.195 580.871 191.125 580.879 191.058C580.916 190.775 580.896 190.491 580.824 190.222C580.752 189.952 580.627 189.695 580.453 189.468C580.285 189.249 580.076 189.06 579.826 188.915L573.722 185.392C573.69 185.374 573.665 185.347 573.652 185.314C573.637 185.28 573.632 185.242 573.643 185.204L573.8 184.558L573.792 184.556C573.847 184.306 573.897 184.05 573.944 183.791C574.034 183.304 574.108 182.823 574.165 182.351C574.224 181.884 574.268 181.4 574.296 180.904C574.327 180.407 574.343 179.92 574.343 179.445C574.343 178.97 574.327 178.482 574.296 177.986C574.268 177.489 574.224 177.006 574.165 176.535C574.109 176.068 574.036 175.588 573.944 175.096C573.855 174.612 573.753 174.141 573.641 173.686C573.631 173.647 573.636 173.608 573.653 173.573C573.669 173.538 573.696 173.509 573.73 173.493L579.827 169.973C580.077 169.828 580.288 169.639 580.452 169.42C580.626 169.193 580.751 168.935 580.823 168.668C580.894 168.401 580.915 168.117 580.878 167.832C580.845 167.565 580.759 167.301 580.622 167.055C579.169 164.364 577.503 161.652 575.966 158.99L575.878 159.04C575.833 158.998 575.784 158.959 575.735 158.92C575.508 158.748 575.251 158.622 574.981 158.55C574.713 158.479 574.428 158.458 574.145 158.495C573.87 158.53 573.6 158.616 573.352 158.758L572.9 159.018L572.902 159.022L567.243 162.288C567.208 162.309 567.169 162.315 567.134 162.31C567.098 162.305 567.063 162.288 567.038 162.262L567.022 162.247C566.329 161.58 565.59 160.952 564.812 160.365C564.038 159.783 563.231 159.247 562.397 158.765C561.562 158.282 560.696 157.849 559.801 157.469C558.912 157.092 558 156.767 557.067 156.5C557.03 156.49 557.001 156.467 556.979 156.44C556.956 156.408 556.941 156.372 556.943 156.336V149.29C556.943 149.002 556.885 148.724 556.779 148.469C556.669 148.205 556.508 147.968 556.31 147.773C556.112 147.575 555.875 147.415 555.614 147.305C555.359 147.2 555.081 147.141 554.794 147.141H546.148C545.859 147.141 545.583 147.2 545.329 147.305C545.067 147.415 544.831 147.575 544.63 147.773C544.241 148.163 543.999 148.7 543.999 149.29V156.336C543.999 156.377 543.984 156.414 543.964 156.444C543.941 156.471 543.909 156.493 543.87 156.501L543.841 156.511C542.901 156.783 541.994 157.105 541.123 157.476Z" fill="#CCCCCC"/>
<path fill-rule="evenodd" clip-rule="evenodd" d="M223.093 32.458C224.153 31.398 225.615 30.745 227.231 30.745C228.846 30.745 230.308 31.398 231.367 32.458C232.426 33.516 233.081 34.979 233.081 36.595C233.081 38.211 232.426 39.673 231.367 40.731C230.308 41.79 228.846 42.445 227.231 42.445C225.615 42.445 224.153 41.79 223.093 40.731C222.035 39.673 221.38 38.21 221.38 36.595C221.38 34.98 222.035 33.517 223.093 32.458ZM224.357 26.66C223.547 26.894 222.778 27.223 222.065 27.637C221.333 28.059 220.657 28.569 220.053 29.152C219.935 29.266 219.76 29.283 219.624 29.205L216.906 27.636L216.892 27.626C216.736 27.543 216.558 27.526 216.396 27.57C216.228 27.614 216.079 27.722 215.986 27.883L215.975 27.901L214.063 31.214C213.97 31.373 213.952 31.557 213.997 31.725C214.041 31.892 214.149 32.043 214.309 32.135L214.328 32.146L217.024 33.703C217.165 33.784 217.23 33.947 217.193 34.098V34.099C217.094 34.5 217.019 34.912 216.967 35.336C216.917 35.747 216.891 36.1679 216.891 36.5959C216.891 37.0229 216.917 37.445 216.967 37.8549C217.019 38.2769 217.094 38.6899 217.194 39.0919C217.235 39.2589 217.152 39.426 217.005 39.5L214.309 41.056C214.149 41.149 214.041 41.299 213.997 41.466C213.952 41.633 213.97 41.817 214.063 41.977L215.986 45.308C216.079 45.469 216.228 45.5769 216.396 45.6219C216.563 45.6659 216.747 45.647 216.906 45.556L216.927 45.545L219.626 43.9859C219.767 43.9049 219.94 43.9309 220.053 44.0379C220.657 44.6209 221.332 45.1309 222.065 45.5549C222.782 45.9699 223.556 46.301 224.372 46.535C224.53 46.58 224.633 46.724 224.634 46.881V50.016C224.634 50.201 224.71 50.369 224.832 50.491C224.954 50.613 225.122 50.6889 225.307 50.6889H229.155C229.339 50.6889 229.507 50.613 229.629 50.491C229.753 50.369 229.827 50.201 229.827 50.016V46.881C229.827 46.712 229.945 46.568 230.104 46.531C230.915 46.297 231.683 45.9669 232.396 45.5549C233.128 45.1309 233.803 44.6209 234.408 44.0379C234.531 43.9199 234.716 43.9069 234.854 43.9969L237.554 45.556C237.713 45.647 237.898 45.6659 238.065 45.6219C238.232 45.5769 238.382 45.469 238.475 45.308L238.486 45.2899L240.4 41.976L240.399 41.975C240.491 41.816 240.509 41.633 240.465 41.466C240.42 41.299 240.312 41.148 240.153 41.056L237.437 39.489C237.296 39.407 237.231 39.2429 237.268 39.0919H237.267C237.366 38.6899 237.443 38.278 237.493 37.856C237.545 37.445 237.57 37.0239 237.57 36.5959C237.57 36.1679 237.545 35.746 237.493 35.335C237.443 34.912 237.366 34.5 237.267 34.099C237.225 33.932 237.309 33.764 237.457 33.692L240.153 32.135C240.312 32.044 240.42 31.893 240.465 31.725C240.509 31.558 240.491 31.374 240.399 31.215L240.388 31.194L238.476 27.882L238.475 27.883C238.382 27.722 238.232 27.614 238.065 27.57C237.898 27.525 237.715 27.544 237.555 27.635V27.636L234.836 29.205C234.692 29.289 234.512 29.26 234.4 29.145C233.798 28.565 233.125 28.057 232.396 27.637C231.679 27.222 230.903 26.889 230.088 26.656C229.931 26.61 229.828 26.468 229.827 26.311V23.175C229.827 22.99 229.753 22.822 229.629 22.7C229.507 22.578 229.339 22.502 229.155 22.502H225.307C225.122 22.502 224.954 22.578 224.832 22.7C224.71 22.822 224.634 22.99 224.634 23.175V26.311C224.634 26.481 224.516 26.623 224.357 26.66Z" fill="#CCCCCC"/>
<path fill-rule="evenodd" clip-rule="evenodd" d="M471.26 92.7978C472.319 91.7388 473.781 91.0848 475.398 91.0848C477.012 91.0848 478.475 91.7388 479.534 92.7978C480.591 93.8558 481.247 95.3188 481.247 96.9348C481.247 98.5498 480.591 100.013 479.534 101.071C478.475 102.13 477.013 102.785 475.398 102.785C473.782 102.785 472.319 102.13 471.26 101.071C470.203 100.013 469.547 98.5498 469.547 96.9348C469.547 95.3188 470.203 93.8558 471.26 92.7978ZM472.523 86.9998C471.712 87.2328 470.943 87.5638 470.231 87.9768C469.5 88.3988 468.823 88.9098 468.218 89.4928C468.1 89.6058 467.925 89.6228 467.79 89.5448L465.071 87.9758L465.057 87.9668C464.901 87.8818 464.724 87.8658 464.561 87.9098C464.393 87.9548 464.243 88.0628 464.15 88.2228L464.139 88.2408L462.228 91.5538C462.135 91.7128 462.116 91.8968 462.161 92.0648C462.208 92.2328 462.315 92.3828 462.475 92.4748L462.493 92.4858L465.189 94.0428C465.331 94.1238 465.395 94.2878 465.359 94.4388C465.26 94.8408 465.182 95.2528 465.131 95.6758C465.082 96.0868 465.057 96.5078 465.057 96.9358C465.057 97.3628 465.082 97.7838 465.131 98.1958C465.182 98.6178 465.26 99.0298 465.359 99.4318C465.399 99.5988 465.318 99.7658 465.169 99.8398L462.476 101.396C462.316 101.488 462.208 101.639 462.162 101.806C462.117 101.973 462.137 102.157 462.229 102.318L464.151 105.648C464.244 105.809 464.394 105.917 464.562 105.961C464.729 106.006 464.912 105.987 465.072 105.896L465.092 105.885L467.791 104.326C467.935 104.245 468.107 104.271 468.219 104.378C468.823 104.961 469.498 105.471 470.232 105.895C470.95 106.31 471.721 106.641 472.54 106.875C472.697 106.92 472.8 107.065 472.8 107.222V110.356C472.8 110.541 472.878 110.709 473.001 110.831C473.122 110.954 473.29 111.029 473.474 111.029H477.323C477.508 111.029 477.674 110.954 477.797 110.831C477.92 110.709 477.998 110.541 477.998 110.356V107.222C477.998 107.052 478.113 106.908 478.271 106.87C479.082 106.637 479.852 106.307 480.565 105.895C481.296 105.471 481.97 104.961 482.577 104.378C482.699 104.26 482.887 104.246 483.024 104.337L485.722 105.896C485.882 105.988 486.066 106.006 486.234 105.961C486.4 105.917 486.55 105.809 486.643 105.648L486.654 105.63L488.567 102.316V102.315C488.658 102.156 488.679 101.973 488.632 101.806C488.587 101.638 488.48 101.488 488.32 101.396L485.605 99.8288C485.461 99.7468 485.397 99.5828 485.435 99.4318C485.534 99.0298 485.609 98.6178 485.661 98.1958C485.712 97.7848 485.737 97.3638 485.737 96.9358C485.737 96.5078 485.712 96.0868 485.661 95.6748C485.609 95.2528 485.534 94.8408 485.435 94.4388C485.393 94.2718 485.476 94.1038 485.623 94.0308L488.319 92.4748C488.478 92.3838 488.586 92.2328 488.631 92.0648C488.678 91.8978 488.656 91.7148 488.566 91.5548L488.553 91.5338L486.643 88.2218V88.2228C486.549 88.0628 486.399 87.9548 486.233 87.9098C486.065 87.8648 485.881 87.8828 485.721 87.9748V87.9758L483.002 89.5448C482.858 89.6288 482.678 89.5998 482.566 89.4848C481.964 88.9048 481.293 88.3968 480.563 87.9768C479.843 87.5618 479.071 87.2288 478.253 86.9958C478.097 86.9498 477.995 86.8078 477.995 86.6498V83.5148C477.995 83.3298 477.917 83.1618 477.794 83.0398C477.671 82.9178 477.505 82.8418 477.32 82.8418H473.471C473.287 82.8418 473.119 82.9178 472.998 83.0398C472.875 83.1618 472.797 83.3298 472.797 83.5148V86.6498C472.799 86.8208 472.684 86.9618 472.523 86.9998Z" fill="#CCCCCC"/>
<path fill-rule="evenodd" clip-rule="evenodd" d="M493.299 127.298C493.299 126.745 492.849 126.295 492.297 126.295C491.742 126.295 491.294 126.745 491.294 127.298V129.658H488.933C488.379 129.658 487.93 130.108 487.93 130.661C487.93 131.216 488.379 131.666 488.933 131.666H491.294V134.025C491.294 134.579 491.742 135.028 492.297 135.028C492.849 135.028 493.299 134.579 493.299 134.025V131.666H495.658C496.213 131.666 496.662 131.216 496.662 130.661C496.662 130.108 496.213 129.658 495.658 129.658H493.299V127.298Z" fill="#B1B1B1"/>
<path fill-rule="evenodd" clip-rule="evenodd" d="M454.18 38.5558C454.18 38.0018 453.729 37.5518 453.176 37.5518C452.622 37.5518 452.172 38.0018 452.172 38.5558V40.9147H449.813C449.26 40.9147 448.811 41.3648 448.811 41.9188C448.811 42.4728 449.26 42.9218 449.813 42.9218H452.172V45.2818C452.172 45.8358 452.622 46.2848 453.176 46.2848C453.729 46.2848 454.18 45.8358 454.18 45.2818V42.9218H456.538C457.094 42.9218 457.543 42.4728 457.543 41.9188C457.543 41.3648 457.094 40.9147 456.538 40.9147H454.18V38.5558Z" fill="#B1B1B1"/>
<path fill-rule="evenodd" clip-rule="evenodd" d="M340.565 1.06404C340.565 0.511041 340.117 0.0610352 339.563 0.0610352C339.009 0.0610352 338.56 0.511041 338.56 1.06404V3.42303H336.201C335.646 3.42303 335.196 3.87304 335.196 4.42704C335.196 4.98204 335.646 5.43004 336.201 5.43004H338.56V7.79104C338.56 8.34404 339.009 8.79304 339.563 8.79304C340.117 8.79304 340.565 8.34404 340.565 7.79104V5.43004H342.925C343.48 5.43004 343.927 4.98204 343.927 4.42704C343.927 3.87304 343.48 3.42303 342.925 3.42303H340.565V1.06404Z" fill="#B1B1B1"/>
<path fill-rule="evenodd" clip-rule="evenodd" d="M623.447 229.433C623.447 228.878 622.998 228.431 622.443 228.431C621.887 228.431 621.438 228.878 621.438 229.433V231.791H619.08C618.525 231.791 618.076 232.242 618.076 232.794C618.076 233.349 618.525 233.8 619.08 233.8H621.438V236.159C621.438 236.712 621.887 237.161 622.443 237.161C622.998 237.161 623.447 236.712 623.447 236.159V233.8H625.805C626.359 233.8 626.808 233.349 626.808 232.794C626.808 232.242 626.359 231.791 625.805 231.791H623.447V229.433Z" fill="#B1B1B1"/>
<path fill-rule="evenodd" clip-rule="evenodd" d="M157.651 71.503C157.651 70.949 157.201 70.5 156.647 70.5C156.093 70.5 155.644 70.949 155.644 71.503V73.863H153.285C152.73 73.863 152.281 74.312 152.281 74.866C152.281 75.42 152.73 75.869 153.285 75.869H155.644V78.229C155.644 78.783 156.093 79.232 156.647 79.232C157.201 79.232 157.651 78.783 157.651 78.229V75.869H160.01C160.564 75.869 161.014 75.42 161.014 74.866C161.014 74.312 160.564 73.863 160.01 73.863H157.651V71.503Z" fill="#B1B1B1"/>
<path fill-rule="evenodd" clip-rule="evenodd" d="M5.90296 245.456C5.90296 244.902 5.45296 244.454 4.89996 244.454C4.34496 244.454 3.89697 244.902 3.89697 245.456V247.814H1.53696C0.982964 247.814 0.532959 248.264 0.532959 248.818C0.532959 249.372 0.982964 249.823 1.53696 249.823H3.89697V252.182C3.89697 252.735 4.34496 253.184 4.89996 253.184C5.45296 253.184 5.90296 252.735 5.90296 252.182V249.823H8.26196C8.81696 249.823 9.26597 249.372 9.26597 248.818C9.26597 248.264 8.81696 247.814 8.26196 247.814H5.90296V245.456Z" fill="#B1B1B1"/>
<path fill-rule="evenodd" clip-rule="evenodd" d="M516.65 252.155C516.65 251.6 516.201 251.151 515.648 251.151C515.092 251.151 514.644 251.6 514.644 252.155V254.513H512.285C511.73 254.513 511.281 254.964 511.281 255.516C511.281 256.073 511.73 256.522 512.285 256.522H514.644V258.88C514.644 259.434 515.092 259.883 515.648 259.883C516.201 259.883 516.65 259.434 516.65 258.88V256.522H519.009C519.564 256.522 520.013 256.073 520.013 255.516C520.013 254.964 519.564 254.513 519.009 254.513H516.65V252.155Z" fill="#B1B1B1"/>
<path fill-rule="evenodd" clip-rule="evenodd" d="M159.396 168.924C173.617 161.365 177.227 177.811 171.697 191.428C166.167 205.045 137.799 250.848 136.317 269.014C135.743 276.053 134.43 275.285 133.307 270.348C127.702 245.724 139.819 179.327 159.396 168.924Z" fill="url(#paint3_linear_3165_4)"/>
<path fill-rule="evenodd" clip-rule="evenodd" d="M129.285 106.53C112.979 91.848 102.784 112.398 105.602 132.223C108.421 152.048 130.817 221.95 126.785 246.452C125.222 255.948 127.211 255.366 130.324 249.21C145.854 218.506 151.731 126.74 129.285 106.53Z" fill="url(#paint4_linear_3165_4)"/>
<path fill-rule="evenodd" clip-rule="evenodd" d="M126.444 253.259C126.793 254.171 127.568 253.72 128.607 252.203C145.601 195.593 119.127 111.012 119.044 110.74C118.899 110.275 118.404 110.014 117.939 110.158C117.473 110.301 117.212 110.796 117.356 111.262C117.439 111.535 144.275 197.271 126.444 253.259Z" fill="white"/>
<path fill-rule="evenodd" clip-rule="evenodd" d="M93.67 153.566C77.869 146.688 75.39 164.534 82.423 178.599C89.458 192.665 123.538 239.161 126.633 258.414C127.832 265.877 129.168 264.948 129.956 259.588C133.882 232.853 115.42 163.033 93.67 153.566Z" fill="#ED1B35"/>
<path fill-rule="evenodd" clip-rule="evenodd" d="M128.074 263.569C128.56 264.161 129.025 263.631 129.421 262.245C127.991 215.847 87.22 159.433 87.09 159.251C86.866 158.94 86.433 158.87 86.121 159.092C85.81 159.315 85.739 159.748 85.962 160.06C86.093 160.242 127.42 217.426 128.074 263.569Z" fill="white"/>
<path fill-rule="evenodd" clip-rule="evenodd" d="M115.918 253.296H146.272L154.197 260.448L147.723 285.389H131.094H114.466L107.993 260.448L115.918 253.296Z" fill="#424242"/>
<path fill-rule="evenodd" clip-rule="evenodd" d="M107.993 244.017H154.197C155.579 244.017 156.71 245.148 156.71 246.53V257.937C156.71 259.319 155.579 260.45 154.197 260.45H107.993C106.611 260.45 105.48 259.319 105.48 257.937V246.53C105.479 245.147 106.611 244.017 107.993 244.017Z" fill="#424242"/>
<path fill-rule="evenodd" clip-rule="evenodd" d="M154.197 260.448L152.866 265.575H109.323L107.992 260.448H154.197Z" fill="#171717"/>
<path fill-rule="evenodd" clip-rule="evenodd" d="M28.267 287.858H22.822C20.547 287.858 18.688 285.999 18.688 283.725C18.688 281.451 20.547 279.59 22.822 279.59H28.267C30.541 279.59 32.401 281.451 32.401 283.725C32.401 285.999 30.541 287.858 28.267 287.858Z" fill="#767677"/>
<path fill-rule="evenodd" clip-rule="evenodd" d="M41.5419 287.858H640.803C643.079 287.858 644.938 285.999 644.938 283.725C644.938 281.451 643.08 279.59 640.803 279.59H41.5419C39.2679 279.59 37.4089 281.451 37.4089 283.725C37.4089 285.999 39.2679 287.858 41.5419 287.858Z" fill="#767677"/>
<defs>
<linearGradient id="paint0_linear_3165_4" x1="292" y1="181.923" x2="385.666" y2="181.923" gradientUnits="userSpaceOnUse">
<stop offset="0.000358737" stop-color="#931D1D"/>
<stop offset="0.2987" stop-color="#961E1E"/>
<stop offset="0.9996" stop-color="#ED1B35"/>
</linearGradient>
<linearGradient id="paint1_linear_3165_4" x1="332.412" y1="193.859" x2="345.254" y2="193.859" gradientUnits="userSpaceOnUse">
<stop offset="0.000358737" stop-color="#931D1D"/>
<stop offset="0.2987" stop-color="#961E1E"/>
<stop offset="0.9996" stop-color="#ED1B35"/>
</linearGradient>
<linearGradient id="paint2_linear_3165_4" x1="338.812" y1="206.241" x2="338.812" y2="98.159" gradientUnits="userSpaceOnUse">
<stop offset="0.000358737" stop-color="#931D1D"/>
<stop offset="0.2987" stop-color="#961E1E"/>
<stop offset="0.9996" stop-color="#ED1B35"/>
</linearGradient>
<linearGradient id="paint3_linear_3165_4" x1="131.934" y1="220.596" x2="174.167" y2="220.596" gradientUnits="userSpaceOnUse">
<stop offset="0.000358737" stop-color="#931D1D"/>
<stop offset="0.2987" stop-color="#961E1E"/>
<stop offset="0.9996" stop-color="#ED1B35"/>
</linearGradient>
<linearGradient id="paint4_linear_3165_4" x1="105.135" y1="177.639" x2="144.102" y2="177.639" gradientUnits="userSpaceOnUse">
<stop offset="0.000358737" stop-color="#931D1D"/>
<stop offset="0.2987" stop-color="#961E1E"/>
<stop offset="0.9996" stop-color="#ED1B35"/>
</linearGradient>
</defs>
</svg>
