<?xml version="1.0" encoding="utf-8"?>
<!-- Svg Vector Icons : http://www.onlinewebfonts.com/icon -->
<!DOCTYPE svg PUBLIC "-//W3C//DTD SVG 1.1//EN" "http://www.w3.org/Graphics/SVG/1.1/DTD/svg11.dtd">
<svg version="1.1" xmlns="http://www.w3.org/2000/svg" xmlns:xlink="http://www.w3.org/1999/xlink" x="0px" y="0px" viewBox="0 0 256 256" enable-background="new 0 0 256 256" xml:space="preserve">
<metadata> Svg Vector Icons : http://www.onlinewebfonts.com/icon </metadata>
<g><g><path fill="#1e1e44" d="M64,143.7h134.3v15.5H64V143.7L64,143.7z"/><path fill="#1e1e44" d="M64,191.8h134.3v15.5H64V191.8L64,191.8z"/><path fill="#1e1e44" d="M136.2,95.6h62.1v15.5h-62.1V95.6L136.2,95.6z"/><path fill="#1e1e44" d="M149.5,47.4h48.7V63h-48.7V47.4L149.5,47.4z"/><path fill="#1e1e44" d="M209.5,246H46.5c-10.7,0-19.5-9.2-19.5-20.4V30.4c0-11.2,8.7-20.4,19.5-20.4h162.9c10.7,0,19.5,9.2,19.5,20.4v195.2C228.9,236.8,220.2,246,209.5,246L209.5,246z M46.5,25.5c-2.1,0-3.9,2.2-3.9,4.9v195.2c0,2.6,1.8,4.9,3.9,4.9h162.9c2.1,0,3.9-2.2,3.9-4.9V30.4c0-2.6-1.8-4.9-3.9-4.9H46.5L46.5,25.5z"/><path fill="#1e1e44" d="M116.3,85.7c1.8,3,2.7,6.5,2.7,10.6c0,6.2-1.9,11.3-5.5,15.5c-3.7,4.1-9,6.6-16,7.3v10.6h-8.9v-10.5c-11.6-1.2-18.8-7.9-21.6-20.2l13.7-3.6c1.3,7.7,5.5,11.6,12.6,11.6c3.3,0,5.8-0.8,7.4-2.5c1.6-1.7,2.4-3.6,2.4-6c0-2.4-0.8-4.3-2.4-5.5c-1.6-1.3-5.1-2.8-10.5-4.7c-4.9-1.7-8.7-3.3-11.4-5c-2.7-1.6-5-3.9-6.7-6.9c-1.7-3-2.6-6.5-2.6-10.4c0-5.2,1.5-9.8,4.6-14c3.1-4.1,7.9-6.7,14.4-7.6V36h8.9v8.2c9.9,1.2,16.3,6.8,19.3,16.8l-12.2,5c-2.4-6.9-6-10.3-11.1-10.3c-2.5,0-4.5,0.8-6,2.3c-1.5,1.5-2.3,3.4-2.3,5.6c0,2.2,0.7,3.9,2.2,5.1c1.5,1.2,4.6,2.7,9.4,4.4c5.2,1.9,9.4,3.8,12.4,5.5C112.1,80.3,114.5,82.7,116.3,85.7L116.3,85.7z"/></g></g>
</svg>