<svg width="146" height="30" viewBox="0 0 146 30" fill="none" xmlns="http://www.w3.org/2000/svg">
    <path d="M36.8927 3.1715H35.4701C34.9028 3.1715 34.4402 3.58518 34.4402 4.09365V13.5823C34.4402 14.0908 34.9028 14.5045 35.4701 14.5045H36.8927C37.4601 14.5045 37.9226 14.0908 37.9226 13.5823V4.10227C37.9314 3.58518 37.4688 3.1715 36.8927 3.1715Z" fill="white"/>
    <path d="M31.7608 3.1715C31.3331 3.1715 30.9142 3.28354 30.5563 3.49899C30.1985 3.71445 29.9104 4.00747 29.7359 4.3522L25.9393 11.5829C25.852 11.7552 25.6687 12.031 25.5203 12.031C25.372 12.031 25.1887 11.7552 25.1014 11.5829L21.2873 4.3522C21.1127 4.00747 20.8247 3.70583 20.4756 3.49899C20.1178 3.29216 19.6988 3.18012 19.2799 3.1715H17.0717L23.094 13.634C23.6875 14.6596 24.9094 14.6423 25.5378 14.6423C26.4018 14.6423 27.4143 14.5993 27.9554 13.634L33.9776 3.1715H31.7608Z" fill="white"/>
    <path d="M98.3283 1.43924C98.3283 1.19793 98.2236 0.956622 98.0228 0.784257C97.8308 0.611893 97.569 0.517093 97.2897 0.517093H95.8583C95.5878 0.517093 95.3259 0.611893 95.1339 0.792876C94.9419 0.96524 94.8372 1.19793 94.8372 1.44786V10.8331C94.8372 12.2637 95.4045 13.0997 96.4169 13.6943C97.4293 14.289 98.5378 14.5303 100.65 14.5303H101.811C102.081 14.5303 102.343 14.4355 102.535 14.2631C102.727 14.0908 102.841 13.8581 102.841 13.6082V12.5998H101.977C101.348 12.5998 100.039 12.5826 99.2622 12.1086C98.2498 11.5053 98.337 10.4367 98.337 9.67825L98.3283 1.43924Z" fill="white"/>
    <path d="M75.9762 12.5912C75.3478 12.5912 74.0386 12.574 73.2618 12.1C72.2494 11.4967 72.3367 10.428 72.3367 9.66963V5.10198H75.7231C75.8628 5.10198 75.9937 5.07613 76.1159 5.03304C76.2381 4.98994 76.3515 4.921 76.4475 4.83482C76.5435 4.74863 76.6221 4.64522 76.6744 4.53318C76.7268 4.42114 76.753 4.30049 76.753 4.17983V3.1715H72.3367V1.43924C72.3367 1.19793 72.232 0.956622 72.0312 0.784257C71.8305 0.611893 71.5774 0.517093 71.2981 0.517093H69.8754C69.6049 0.517093 69.343 0.611893 69.1423 0.784257C68.9503 0.956622 68.8368 1.18931 68.8368 1.43924V3.18012H61.5578V1.43924C61.5578 1.19793 61.453 0.956622 61.2523 0.784257C61.0603 0.611893 60.7984 0.517093 60.5191 0.517093H59.0878C58.8172 0.517093 58.5554 0.611893 58.3546 0.784257C58.1539 0.956622 58.0491 1.18931 58.0491 1.43924V3.18012H55.8759V4.17983C55.8759 4.42114 55.9806 4.66245 56.1726 4.83482C56.3647 5.00718 56.6265 5.10198 56.8971 5.1106H58.0579V10.8245C58.0579 12.2551 58.6252 13.0911 59.6376 13.6857C60.6501 14.2804 61.7498 14.5217 63.8706 14.5217H65.0314C65.302 14.5217 65.5639 14.4269 65.7559 14.2545C65.9479 14.0822 66.0526 13.8495 66.0526 13.5995V12.5912H65.1886C64.5689 12.5912 63.251 12.574 62.4742 12.1C61.4617 11.4967 61.549 10.428 61.549 9.66963V5.10198H68.8281V10.8159C68.8281 12.2465 69.3954 13.0824 70.4078 13.6771C71.4203 14.2718 72.52 14.5131 74.6408 14.5131H75.8017C76.0722 14.5131 76.3341 14.4183 76.5261 14.2459C76.7181 14.0735 76.8315 13.8408 76.8315 13.5909V12.5826H75.9762V12.5912Z" fill="white"/>
    <path d="M51.5294 7.09279C51.5294 7.39443 51.4334 7.75639 50.7526 7.75639H45.7952C44.5384 7.75639 43.5085 8.27348 43.5085 8.91123V7.75639C43.5347 7.00661 43.5085 6.3861 44.2242 5.80868C45.1842 5.04165 46.6156 5.05889 47.5408 5.05889C48.4659 5.05889 49.6529 5.10198 50.517 5.56737C50.8137 5.72249 51.0668 5.94657 51.2414 6.21373C51.4159 6.4809 51.5119 6.78253 51.5207 7.09279H51.5294ZM54.6278 13.5909V12.5826H46.9036C45.6206 12.5826 44.1631 12.4533 43.718 11.2381C43.5783 10.7297 43.5085 10.204 43.5085 9.66963H52.6902C53.2924 9.70411 53.8947 9.5576 54.3922 9.23872C54.654 9.02327 54.8635 8.76472 54.9944 8.46308C55.1253 8.17006 55.1777 7.84257 55.1427 7.5237C55.1427 6.08446 54.7587 4.67969 52.8997 3.84372C51.4421 3.18012 49.5307 3.11979 47.6804 3.11979C46.1879 3.11979 43.5085 3.11979 41.7804 4.18845C40.0522 5.25711 39.9039 6.81701 39.9039 8.93709C39.9039 10.4367 39.9912 11.9966 41.0385 13.0652C42.3564 14.3924 44.2591 14.4958 45.8737 14.4958H53.6241C53.8947 14.4958 54.1478 14.3924 54.3398 14.22C54.5231 14.0649 54.6278 13.8322 54.6278 13.5909Z" fill="white"/>
    <path d="M89.2513 7.09279C89.2513 7.39443 89.164 7.75639 88.4745 7.75639H83.5083C82.2515 7.75639 81.2216 8.27348 81.2216 8.91123V7.75639C81.2566 7.00661 81.2216 6.3861 81.9373 5.80868C82.8887 5.04165 84.32 5.05889 85.2452 5.05889C86.2315 5.05889 87.3574 5.10198 88.2214 5.56737C88.5182 5.72249 88.7713 5.94657 88.9546 6.21373C89.1378 6.4809 89.2338 6.78253 89.2426 7.10141V7.09279H89.2513ZM92.3497 13.5909V12.5826H84.6255C83.3425 12.5826 81.885 12.4533 81.4398 11.2381C81.3002 10.7297 81.2304 10.204 81.2304 9.66963H90.4121C91.0231 9.71272 91.634 9.5576 92.1315 9.23872C92.4021 9.02327 92.6028 8.76472 92.7337 8.46308C92.8646 8.16145 92.917 7.84257 92.8821 7.5237C92.8821 6.08446 92.4981 4.67969 90.6478 3.84372C89.1902 3.18012 87.2788 3.11979 85.4285 3.11979C83.936 3.11979 81.2566 3.11979 79.5284 4.18845C77.8003 5.25711 77.6519 6.81701 77.6519 8.93709C77.6519 10.4367 77.7392 11.9966 78.7866 13.0652C80.1045 14.3924 82.0071 14.4958 83.6218 14.4958H91.3722C91.6427 14.4872 91.8959 14.3838 92.0791 14.2114C92.245 14.0649 92.3497 13.8322 92.3497 13.5909Z" fill="white"/>
    <path d="M36.8928 0H35.4614C35.1908 0 34.929 0.0948004 34.737 0.275783C34.545 0.456765 34.4402 0.680839 34.4402 0.930767V3.30939C34.4402 2.74921 35.1297 2.10284 36.1858 2.10284H36.9015C37.172 2.10284 37.4339 2.00804 37.6259 1.83568C37.8179 1.66332 37.9314 1.43062 37.9314 1.18931V0.939385C37.9314 0.81873 37.9052 0.698075 37.8528 0.586039C37.8005 0.474002 37.7219 0.370583 37.6259 0.284401C37.5299 0.198219 37.4164 0.129273 37.2942 0.0775639C37.1633 0.0258546 37.0324 0 36.8928 0Z" fill="white"/>
    <path d="M36.1509 18.8566L36.1422 18.848C36.1422 18.848 36.1422 18.848 36.1334 18.8394C36.0549 18.736 35.924 18.6757 35.7756 18.6757L35.1734 18.6843C35.025 18.6843 34.8941 18.7532 34.8155 18.8566C34.8155 18.8566 34.8155 18.8653 34.8068 18.8653C34.8068 18.8739 34.7981 18.8739 34.7981 18.8825C34.7544 18.9428 34.737 19.0118 34.737 19.0893V20.1235C34.7806 19.9684 34.9203 19.8391 35.1035 19.8133C35.121 19.8133 35.1559 19.8047 35.2781 19.8047C35.2868 19.8047 35.2868 19.8047 35.2956 19.8047H35.7756C35.828 19.8047 35.8716 19.796 35.9152 19.7788C35.9763 19.7616 36.0374 19.7271 36.0811 19.684L36.0898 19.6754C36.116 19.6495 36.1334 19.6323 36.1509 19.5978C36.1945 19.5375 36.212 19.4685 36.2207 19.391V19.0721C36.2207 18.9945 36.1945 18.917 36.1509 18.8566Z" fill="white"/>
    <path d="M17.2463 23.7259H20.3272C20.5454 23.7259 20.6589 23.5967 20.6589 23.3295C20.6589 22.9158 20.4931 22.597 20.1614 22.3815C19.8385 22.166 19.437 22.0626 18.957 22.0626C18.3286 22.0626 17.8834 22.1919 17.6216 22.4591C17.3772 22.709 17.2463 23.1313 17.2463 23.7259ZM21.9768 27.7593H18.25C17.7263 27.7593 17.2899 27.6903 16.9408 27.5438C16.6004 27.3973 16.3473 27.1732 16.164 26.863C15.9895 26.5441 15.8673 26.1994 15.7975 25.8115C15.7364 25.4237 15.7102 24.9411 15.7102 24.3551C15.7102 23.0451 15.9546 22.1402 16.4433 21.6403C16.9408 21.1491 17.7787 20.8992 18.957 20.8992C20.0043 20.8992 20.8073 21.0974 21.3571 21.4852C21.9157 21.873 22.195 22.5711 22.195 23.5794C22.195 24.4326 21.8459 24.8549 21.1564 24.8549H17.2463C17.2463 25.441 17.3423 25.8805 17.5256 26.1735C17.7176 26.4579 18.1104 26.5958 18.6951 26.5958H21.9768V27.7593Z" fill="white"/>
    <path d="M24.4904 23.7259H27.5801C27.7983 23.7259 27.9118 23.5967 27.9118 23.3295C27.9118 22.9158 27.7459 22.597 27.4143 22.3815C27.0913 22.166 26.6899 22.0626 26.2098 22.0626C25.5814 22.0626 25.1363 22.1919 24.8745 22.4591C24.6214 22.709 24.4904 23.1313 24.4904 23.7259ZM29.2297 27.7593H25.5029C24.9792 27.7593 24.5428 27.6903 24.1937 27.5438C23.8533 27.3973 23.6002 27.1732 23.4169 26.863C23.2423 26.5441 23.1202 26.1994 23.0503 25.8115C22.9892 25.4237 22.9631 24.9411 22.9631 24.3551C22.9631 23.0451 23.2074 22.1402 23.6962 21.6403C24.1937 21.1491 25.0316 20.8992 26.2098 20.8992C27.2572 20.8992 28.0601 21.0974 28.61 21.4852C29.1686 21.873 29.4479 22.5711 29.4479 23.5794C29.4479 24.4326 29.0988 24.8549 28.4093 24.8549H24.4992C24.4992 25.441 24.5952 25.8805 24.7785 26.1735C24.9705 26.4579 25.3632 26.5958 25.948 26.5958H29.2297V27.7593Z" fill="white"/>
    <path d="M34.1522 27.7593H33.227C32.4241 27.7593 31.8131 27.5869 31.3855 27.2508C30.9665 26.9061 30.7483 26.3459 30.7483 25.553V22.1402H29.8232V20.9853H30.7483V18.8136H32.2321V20.9853H34.1435V22.1402H32.2321V25.2514C32.2321 25.7426 32.363 26.0959 32.6161 26.3114C32.8692 26.5182 33.262 26.6217 33.7856 26.6217H34.1522V27.7593Z" fill="white"/>
    <path d="M34.737 27.7593V20.9854H36.2207V27.7593H34.737Z" fill="white"/>
    <path d="M37.3815 27.7593V22.1316C37.3815 21.3645 37.7655 20.9767 38.5249 20.9767H40.8814C41.7105 20.9767 42.3564 21.1491 42.8103 21.5024C43.2641 21.8558 43.491 22.4504 43.491 23.295V27.7593H42.0073V23.7001C42.0073 23.1744 41.8938 22.7779 41.6756 22.5194C41.4574 22.2608 41.0996 22.1316 40.5934 22.1316H39.2318C38.9787 22.1316 38.8478 22.2608 38.8478 22.5194V27.7593H37.3815Z" fill="white"/>
    <path d="M48.9983 22.1402H47.5931C47.244 22.1402 46.9647 22.1919 46.7465 22.2953C46.5283 22.3987 46.3625 22.5625 46.2665 22.7779C46.1618 23.002 46.1007 23.2261 46.0658 23.4674C46.0308 23.7001 46.0134 23.9931 46.0134 24.3637C46.0134 24.7343 46.0308 25.0359 46.0658 25.2686C46.1007 25.5013 46.1705 25.7254 46.2665 25.9581C46.3712 26.1821 46.5283 26.3459 46.7465 26.4579C46.9647 26.5613 47.2527 26.613 47.5931 26.613H49.3823V22.5194C49.3736 22.2608 49.2514 22.1402 48.9983 22.1402ZM49.3736 27.7593H47.2178C46.2054 27.7593 45.4897 27.4662 45.0708 26.8888C44.6606 26.3114 44.4598 25.4668 44.4598 24.3551C44.4598 23.2433 44.6606 22.4074 45.0708 21.8386C45.481 21.2698 46.1879 20.9854 47.2178 20.9854H49.714C50.4733 20.9854 50.8574 21.3732 50.8574 22.1402V27.2422C50.8574 28.2074 50.6217 28.9055 50.1591 29.3364C49.7053 29.7759 48.9634 30 47.951 30H44.9311V28.8452H47.951C48.8063 28.8538 49.2776 28.4832 49.3736 27.7593Z" fill="white"/>
    <path d="M56.4781 22.4677V26.613H58.119C58.7736 26.613 59.2012 26.4234 59.402 26.0529C59.6027 25.6737 59.7074 25.1135 59.7074 24.3637C59.7074 23.9931 59.69 23.7001 59.6551 23.4674C59.6202 23.2261 59.5503 23.002 59.4543 22.7779C59.3496 22.5539 59.1925 22.3901 58.9743 22.2953C58.7561 22.1919 58.4681 22.1402 58.1277 22.1402H56.8709C56.6003 22.1402 56.4781 22.2436 56.4781 22.4677ZM56.129 20.9854H58.4768C59.498 20.9854 60.2136 21.2698 60.6239 21.8386C61.0341 22.4074 61.2348 23.2519 61.2348 24.3551C61.2348 25.4668 61.0253 26.3114 60.6151 26.8888C60.2049 27.4662 59.498 27.7593 58.4855 27.7593H56.4781V29.9311H54.9944V22.1316C54.9944 21.3732 55.3697 20.9854 56.129 20.9854Z" fill="white"/>
    <path d="M63.6874 18.8136H62.2036V27.7679H63.6874V18.8136Z" fill="white"/>
    <path d="M66.8992 24.6912C66.4279 24.6912 66.1923 25.0101 66.1923 25.6478C66.1923 26.2856 66.4279 26.6044 66.8992 26.6044H68.9939C69.247 26.6044 69.3779 26.4752 69.3779 26.2166V24.6912H66.8992ZM65.1449 20.9854H68.9677C69.5874 20.9854 70.0587 21.1663 70.3729 21.5369C70.6958 21.9075 70.8529 22.3815 70.8529 22.9848V26.613C70.8529 27.3801 70.4689 27.7679 69.7096 27.7679H66.3232C65.206 27.7679 64.6474 27.0612 64.6474 25.6564C64.6474 25.0014 64.7871 24.4843 65.0664 24.1051C65.3456 23.7259 65.7646 23.545 66.3232 23.545H69.3692V23.1141C69.3692 22.4677 69.055 22.1402 68.4266 22.1402H65.1449V20.9854Z" fill="white"/>
    <path d="M75.7667 27.7593H74.8416C74.0386 27.7593 73.4277 27.5869 73 27.2508C72.5811 26.9061 72.3629 26.3459 72.3629 25.553V22.1402H71.4377V20.9853H72.3629V18.8136H73.8466V20.9853H75.758V22.1402H73.8466V25.2514C73.8466 25.7426 73.9775 26.0959 74.2306 26.3114C74.4837 26.5182 74.8765 26.6217 75.4002 26.6217H75.7667V27.7593Z" fill="white"/>
    <path d="M77.2156 27.7593V22.1316H76.2729V20.9767H77.2156C77.2156 20.1408 77.4774 19.5547 78.0011 19.21C78.5247 18.8653 79.2404 18.7015 80.1569 18.7015C80.2005 18.7015 80.2616 18.7015 80.3489 18.7101C80.4362 18.7101 80.4973 18.7101 80.5409 18.7101V19.8219C80.4798 19.8133 80.4012 19.8133 80.2878 19.8133C80.0958 19.8133 79.9299 19.8133 79.8077 19.8219C79.6768 19.8305 79.5372 19.8564 79.3888 19.9081C79.2404 19.9512 79.1182 20.0115 79.0222 20.0891C78.935 20.1666 78.8651 20.2787 78.7953 20.4338C78.7342 20.5889 78.708 20.7699 78.708 20.9853H80.5496V22.1402H78.708V27.7593H77.2156Z" fill="white"/>
    <path d="M82.2079 24.3637C82.2079 25.2083 82.3563 25.8115 82.6618 26.1649C82.9672 26.5182 83.4909 26.6906 84.2502 26.6906C85.0008 26.6906 85.5332 26.5182 85.8387 26.1649C86.1442 25.8029 86.2926 25.2083 86.2926 24.3637C86.2926 23.5277 86.1442 22.9331 85.8387 22.5883C85.5332 22.235 85.0096 22.0626 84.2502 22.0626C83.4996 22.0626 82.9672 22.235 82.6618 22.5883C82.3563 22.9331 82.2079 23.5277 82.2079 24.3637ZM87.8287 24.3637C87.8287 25.6737 87.5494 26.5872 86.9821 27.087C86.4235 27.5869 85.5158 27.8454 84.2502 27.8454C82.9934 27.8454 82.077 27.5955 81.5097 27.087C80.9511 26.5872 80.6718 25.6737 80.6718 24.3637C80.6718 23.071 80.9511 22.166 81.5184 21.6662C82.0857 21.1663 82.9934 20.9078 84.2502 20.9078C85.4983 20.9078 86.4147 21.1577 86.9821 21.6662C87.5406 22.166 87.8287 23.0623 87.8287 24.3637Z" fill="white"/>
    <path d="M88.7887 27.7593V23.5363C88.7887 22.64 89.0157 21.9937 89.4608 21.5886C89.9059 21.1836 90.5867 20.9767 91.5031 20.9767H92.5068V22.1316H91.8871C91.3024 22.1316 90.8922 22.2781 90.6478 22.5625C90.4034 22.8469 90.2812 23.3123 90.2812 23.9328V27.7593H88.7887Z" fill="white"/>
    <path d="M93.0916 27.7593V22.1316C93.0916 21.3645 93.4756 20.9767 94.2349 20.9767H100.056C100.886 20.9767 101.531 21.1491 101.985 21.5024C102.439 21.8558 102.666 22.4504 102.666 23.295V27.7593H101.182V23.7001C101.182 23.1744 101.069 22.7779 100.851 22.5194C100.632 22.2608 100.275 22.1316 99.7684 22.1316H98.6251V27.7593H97.1413V22.1316H94.9593C94.7062 22.1316 94.5753 22.2608 94.5753 22.5194V27.7593H93.0916Z" fill="white"/>
    <path fill-rule="evenodd" clip-rule="evenodd" d="M0.680775 19.0807L0.689503 19.1152L0.698231 19.1324L0.733142 19.2703L0.794237 19.4513L1.03862 19.8133L1.05607 19.8305L1.42264 20.0718L1.6583 20.1494L1.69321 20.158L1.74558 20.1666L1.78049 20.1752H2.1296L2.23434 20.1494L2.46999 20.0718L2.83656 19.8305L2.85402 19.8133L3.0984 19.4513L3.15949 19.2703L3.21186 19.0635V18.9256C3.21186 18.917 3.21186 18.8997 3.21186 18.8911V18.7188L3.15949 18.5119L3.0984 18.3309L2.85402 17.969L2.83656 17.9517L2.49617 17.7277L2.44381 17.7535L2.18197 17.6673L2.07724 17.6415H1.72812L1.62339 17.6673L1.38773 17.7449L1.1259 17.9173L1.13462 17.9259L1.05607 17.9776L1.04735 18.0121L0.820421 18.3482L0.802965 18.3568L0.785509 18.3913L0.750598 18.4947L0.733142 18.5292L0.724414 18.555L0.698231 18.6584V18.6843L0.680775 18.7532V19.0807Z" fill="white"/>
    <path fill-rule="evenodd" clip-rule="evenodd" d="M11.4772 18.9773V19.0807L11.5295 19.2876L11.5906 19.4685L11.835 19.8305L11.8525 19.8477L12.219 20.089L12.4547 20.1666L12.5594 20.1925H12.9085L13.0133 20.1666L13.2489 20.089L13.6155 19.8477L13.6329 19.8305L13.8773 19.4685L13.9384 19.2876L13.9821 19.1152V18.7015L13.9384 18.5292L13.8773 18.3482L13.6504 18.0121H13.6155L13.598 17.9948L13.5457 17.9604L13.5282 17.9259L13.2402 17.7363L13.0045 17.6587L12.8998 17.6329H12.5507L12.4809 17.6501V17.6673L12.2452 17.7449L11.8786 17.9862L11.8612 18.0034L11.6168 18.3654L11.5557 18.5464L11.5033 18.7532V18.9256C11.5033 18.9342 11.5033 18.9514 11.5033 18.9601L11.4772 18.9773Z" fill="white"/>
    <path fill-rule="evenodd" clip-rule="evenodd" d="M14.6628 24.6481V22.4074C14.6628 22.235 14.6367 22.0712 14.5843 21.9161C14.4708 21.5714 14.2264 21.2611 13.9122 21.0284C13.5893 20.7957 13.1878 20.632 12.7427 20.5803C12.7253 20.5803 12.6991 20.5717 12.6816 20.5717C12.6729 20.5717 12.6729 20.5717 12.6642 20.5717C12.6554 20.5717 12.6467 20.5717 12.6292 20.5717H12.6205C12.6118 20.5717 12.6031 20.5717 12.5943 20.5717C12.5943 20.5717 12.5943 20.5717 12.5856 20.5717C12.5769 20.5717 12.5769 20.5717 12.5681 20.5717C12.5594 20.5717 12.5507 20.5717 12.542 20.5717C12.5332 20.5717 12.5245 20.5717 12.5158 20.5717C12.5071 20.5717 12.4983 20.5717 12.4896 20.5717C12.4809 20.5717 12.4721 20.5717 12.4634 20.5717C12.4547 20.5717 12.446 20.5717 12.4372 20.5717C12.4285 20.5717 12.4198 20.5717 12.411 20.5717H12.3587C12.35 20.5717 12.3412 20.5717 12.3325 20.5717C12.3238 20.5717 12.315 20.5717 12.3063 20.5717C12.2976 20.5717 12.2889 20.5717 12.2801 20.5717C12.2714 20.5717 12.2627 20.5717 12.2539 20.5717C12.2452 20.5717 12.2365 20.5717 12.2278 20.5717C12.219 20.5717 12.2103 20.5717 12.2016 20.5717C12.1929 20.5717 12.1929 20.5717 12.1841 20.5717C12.1754 20.5717 12.1579 20.5717 12.1492 20.5717C12.1318 20.5717 12.123 20.5717 12.1056 20.5717C12.0619 20.5803 12.0183 20.5803 11.9747 20.5889C11.9659 20.5889 11.9572 20.5889 11.9397 20.5975C11.9048 20.6061 11.8699 20.6061 11.8437 20.6148C11.8263 20.6148 11.8088 20.6234 11.8001 20.6234C11.7914 20.6234 11.7826 20.632 11.7652 20.632C11.7565 20.632 11.7477 20.6406 11.739 20.6406C11.7303 20.6406 11.7128 20.6492 11.7041 20.6492C11.6866 20.6579 11.6604 20.6579 11.643 20.6665C11.6343 20.6665 11.6255 20.6751 11.6081 20.6751C11.5906 20.6751 11.5819 20.6837 11.5644 20.6923C11.547 20.7009 11.5295 20.701 11.5121 20.7096C11.5033 20.7096 11.4946 20.7182 11.4859 20.7182C11.4772 20.7182 11.4772 20.7268 11.4684 20.7268C11.4335 20.7354 11.3986 20.7527 11.3637 20.7699C11.3637 20.7699 11.355 20.7699 11.355 20.7785C11.3462 20.7871 11.3288 20.7871 11.3201 20.7957C11.3026 20.8044 11.2939 20.8044 11.2764 20.813C11.259 20.8216 11.2502 20.8216 11.2328 20.8302C11.2241 20.8388 11.2153 20.8388 11.1979 20.8475C11.1891 20.8561 11.1717 20.8647 11.163 20.8647C11.1368 20.8819 11.1106 20.8905 11.0844 20.9078C11.0757 20.9164 11.0582 20.925 11.0495 20.925C10.9884 20.9595 10.9273 21.0026 10.8662 21.0457C10.8488 21.0629 10.8313 21.0715 10.8138 21.0888C10.8051 21.0974 10.7877 21.106 10.7789 21.1146C10.7615 21.1232 10.7528 21.1405 10.7353 21.1491C10.7266 21.1577 10.7266 21.1577 10.7178 21.1663C10.7091 21.1749 10.7004 21.1836 10.6917 21.1922C10.6829 21.2008 10.6655 21.2094 10.6567 21.2267C10.648 21.2353 10.6393 21.2439 10.6306 21.2525C10.6218 21.2611 10.6044 21.2784 10.5956 21.287C10.5782 21.3042 10.5695 21.3128 10.5607 21.3301C10.5258 21.3732 10.4909 21.4163 10.456 21.4594C10.4473 21.468 10.4385 21.4766 10.4385 21.4852C10.4385 21.4938 10.4298 21.4938 10.4298 21.5024C10.4211 21.5111 10.4211 21.5197 10.4124 21.5283C10.4036 21.5369 10.3949 21.5542 10.3862 21.5628C10.3775 21.58 10.3687 21.5886 10.36 21.6059C10.3425 21.6231 10.3338 21.649 10.3251 21.6662C10.3076 21.7007 10.2902 21.7265 10.2727 21.761L9.99342 22.3126L9.4523 23.3726L8.87626 24.5102L8.80643 24.6567L8.45732 25.3462L8.05583 26.1304C8.05583 26.139 8.04711 26.1477 8.04711 26.1563C8.03838 26.1735 8.02965 26.1908 8.02092 26.208V26.2166C8.01219 26.2338 8.00347 26.2425 7.99474 26.2597C7.98601 26.2683 7.98601 26.2769 7.97728 26.2856C7.96856 26.3028 7.9511 26.3114 7.93364 26.3286C7.92492 26.3373 7.91619 26.3459 7.91619 26.3459C7.90746 26.3545 7.89873 26.3631 7.89 26.3631C7.88128 26.3717 7.87255 26.3717 7.86382 26.3804C7.85509 26.389 7.84637 26.389 7.83764 26.3976C7.82891 26.4062 7.82018 26.4062 7.81145 26.4148C7.794 26.4234 7.77654 26.4321 7.75909 26.4407C7.75909 26.4407 7.75036 26.4407 7.75036 26.4493C7.74163 26.4493 7.7329 26.4579 7.7329 26.4579C7.72417 26.4579 7.72418 26.4665 7.71545 26.4665C7.70672 26.4665 7.70672 26.4752 7.69799 26.4752C7.68054 26.4838 7.66308 26.4924 7.65435 26.4924C7.64562 26.4924 7.64562 26.501 7.6369 26.501H7.62817C7.61944 26.501 7.61944 26.501 7.61071 26.5096C7.59326 26.5182 7.5758 26.5182 7.55835 26.5182H7.54089C7.53216 26.5182 7.52343 26.5182 7.52343 26.5182C7.51471 26.5182 7.49725 26.5269 7.48852 26.5269C7.47979 26.5269 7.46234 26.5269 7.45361 26.5355C7.44488 26.5355 7.44488 26.5355 7.43615 26.5355C7.42743 26.5355 7.42743 26.5355 7.4187 26.5355C7.40997 26.5355 7.40997 26.5355 7.40124 26.5355C7.39252 26.5355 7.39252 26.5355 7.38379 26.5355C7.37506 26.5355 7.37506 26.5355 7.36633 26.5355C7.3576 26.5355 7.3576 26.5355 7.34888 26.5355C7.34015 26.5355 7.34015 26.5355 7.33142 26.5355C7.32269 26.5355 7.32269 26.5355 7.31396 26.5355C7.30524 26.5355 7.30524 26.5355 7.29651 26.5355C7.28778 26.5355 7.28778 26.5355 7.27905 26.5355C7.27033 26.5355 7.25287 26.5355 7.24414 26.5269C7.23541 26.5269 7.21796 26.5269 7.20923 26.5182C7.2005 26.5182 7.19177 26.5182 7.19177 26.5182C7.18305 26.5182 7.18305 26.5182 7.17432 26.5182C7.15686 26.5182 7.13941 26.5096 7.12195 26.5096C7.11322 26.5096 7.11322 26.5096 7.1045 26.501H7.09577C7.08704 26.501 7.08704 26.501 7.07831 26.4924C7.06086 26.4838 7.0434 26.4838 7.03467 26.4752C7.02594 26.4752 7.02594 26.4665 7.01722 26.4665C7.00849 26.4665 7.00849 26.4579 6.99976 26.4579C6.99103 26.4579 6.98231 26.4493 6.98231 26.4493C6.98231 26.4493 6.97358 26.4493 6.97358 26.4407C6.95612 26.4321 6.93867 26.4234 6.92121 26.4148C6.91248 26.4062 6.90375 26.4062 6.89503 26.3976C6.8863 26.389 6.87757 26.389 6.86884 26.3804C6.86011 26.3717 6.85139 26.3717 6.84266 26.3631C6.83393 26.3545 6.8252 26.3459 6.81648 26.3459C6.80775 26.3373 6.79902 26.3286 6.79902 26.3286C6.78156 26.3114 6.77284 26.3028 6.75538 26.2856C6.74665 26.2769 6.74665 26.2683 6.73792 26.2597C6.7292 26.2425 6.72047 26.2338 6.71174 26.2166V26.208C6.70301 26.1908 6.69428 26.1735 6.68556 26.1563C6.68556 26.1477 6.67683 26.139 6.67683 26.1304L6.27535 25.3462L5.92623 24.6567L5.85641 24.5102L5.28037 23.3726L4.87889 22.5883L4.36394 21.6662C4.35521 21.6576 4.35521 21.649 4.34648 21.6403C4.33776 21.6145 4.3203 21.5972 4.31157 21.58C4.30285 21.5628 4.29412 21.5542 4.28539 21.5369C4.27666 21.5283 4.26793 21.5111 4.25921 21.5024C4.25048 21.4938 4.25048 21.4852 4.24175 21.4766C4.24175 21.468 4.23302 21.468 4.23302 21.4594C4.22429 21.4507 4.22429 21.4421 4.21557 21.4335C4.18066 21.3904 4.14574 21.3473 4.11083 21.3042C4.1021 21.287 4.08465 21.2784 4.07592 21.2611C4.06719 21.2525 4.04974 21.2353 4.04101 21.2267C4.03228 21.218 4.02355 21.2094 4.01483 21.2008C4.0061 21.1922 3.98864 21.1836 3.97991 21.1663C3.97119 21.1577 3.96246 21.1491 3.95373 21.1405C3.945 21.1319 3.945 21.1319 3.93627 21.1232C3.91882 21.1146 3.91009 21.0974 3.89263 21.0888C3.88391 21.0802 3.86645 21.0715 3.85772 21.0629C3.84027 21.0457 3.82281 21.0371 3.80536 21.0198C3.74426 20.9767 3.68317 20.9336 3.62207 20.8992C3.61334 20.8906 3.59589 20.8819 3.58716 20.8819C3.56098 20.8647 3.53479 20.8561 3.50861 20.8388C3.49988 20.8302 3.48242 20.8216 3.4737 20.8216C3.46497 20.813 3.45624 20.813 3.43879 20.8044C3.43006 20.7957 3.4126 20.7957 3.40387 20.7871C3.39515 20.7785 3.37769 20.7785 3.36023 20.7699C3.35151 20.7613 3.33405 20.7613 3.32532 20.7527C3.32532 20.7527 3.31659 20.7527 3.31659 20.744C3.28168 20.7268 3.24677 20.7182 3.21186 20.7009C3.20313 20.7009 3.20313 20.6923 3.1944 20.6923C3.18568 20.6923 3.17695 20.6837 3.16822 20.6837C3.15076 20.6751 3.13331 20.6751 3.11585 20.6665C3.0984 20.6579 3.08967 20.6579 3.07221 20.6492C3.06349 20.6492 3.05476 20.6406 3.0373 20.6406C3.01985 20.632 2.99366 20.632 2.97621 20.6234C2.96748 20.6234 2.95002 20.6148 2.9413 20.6148C2.93257 20.6148 2.92384 20.6061 2.91511 20.6061C2.90638 20.6061 2.89766 20.5975 2.8802 20.5975C2.86275 20.5975 2.85402 20.5889 2.83656 20.5889C2.80165 20.5803 2.77547 20.5803 2.74055 20.5717C2.73183 20.5717 2.7231 20.5717 2.70564 20.5631C2.662 20.5544 2.61836 20.5544 2.57472 20.5458C2.55727 20.5458 2.54854 20.5458 2.53109 20.5458C2.52236 20.5458 2.5049 20.5458 2.49617 20.5458C2.48745 20.5458 2.48745 20.5458 2.47872 20.5458C2.46999 20.5458 2.46126 20.5458 2.45253 20.5458C2.44381 20.5458 2.43508 20.5458 2.42635 20.5458C2.41762 20.5458 2.4089 20.5458 2.40017 20.5458C2.39144 20.5458 2.38271 20.5458 2.37398 20.5458C2.36526 20.5458 2.35653 20.5458 2.3478 20.5458C2.33907 20.5458 2.33034 20.5458 2.32162 20.5458H2.26925C2.26052 20.5458 2.25179 20.5458 2.24307 20.5458C2.23434 20.5458 2.22561 20.5458 2.21688 20.5458C2.20815 20.5458 2.19943 20.5458 2.1907 20.5458C2.18197 20.5458 2.17324 20.5458 2.16451 20.5458C2.15579 20.5458 2.14706 20.5458 2.13833 20.5458C2.1296 20.5458 2.12088 20.5458 2.11215 20.5458C2.10342 20.5458 2.10342 20.5458 2.09469 20.5458C2.09469 20.5458 2.09469 20.5458 2.08596 20.5458C2.07724 20.5458 2.06851 20.5458 2.05978 20.5458H2.05105C2.04232 20.5458 2.0336 20.5458 2.01614 20.5458C2.00741 20.5458 2.00741 20.5458 1.99868 20.5458C1.9725 20.5458 1.95505 20.5544 1.92886 20.5544C1.48374 20.6061 1.08226 20.7699 0.759326 21.0026C0.436394 21.2353 0.200741 21.5455 0.0872788 21.8903C0.0261836 22.0712 0 22.235 0 22.4074V27.1646C0.00872788 27.3197 0.0785509 27.4662 0.218197 27.5783C0.366571 27.6989 0.567312 27.7593 0.759326 27.7593H1.50992V22.4074C1.50992 22.3729 1.50992 22.3298 1.51865 22.2953L1.56229 22.2005C1.56229 22.1919 1.57102 22.1833 1.57102 22.1747C1.57975 22.1574 1.58847 22.1402 1.5972 22.123V22.1143C1.60593 22.0971 1.61466 22.0885 1.62339 22.0712C1.63211 22.0626 1.63211 22.054 1.64084 22.0454C1.64957 22.0282 1.66703 22.0195 1.68448 22.0023C1.69321 21.9937 1.70194 21.9851 1.70194 21.9851C1.71066 21.9764 1.71939 21.9678 1.72812 21.9678C1.73685 21.9592 1.74558 21.9592 1.7543 21.9506C1.76303 21.942 1.77176 21.942 1.78049 21.9334C1.78922 21.9247 1.79794 21.9247 1.80667 21.9161C1.82413 21.9075 1.84158 21.8989 1.85904 21.8903C1.85904 21.8903 1.86777 21.8903 1.86777 21.8816C1.87649 21.8816 1.88522 21.873 1.88522 21.873C1.89395 21.873 1.89395 21.8644 1.90268 21.8644C1.91141 21.8644 1.91141 21.8558 1.92013 21.8558C1.93759 21.8472 1.95505 21.8386 1.96377 21.8386C1.9725 21.8386 1.9725 21.8299 1.98123 21.8299H1.98996C1.99868 21.8299 1.99868 21.8299 2.00741 21.8213C2.02487 21.8127 2.04232 21.8127 2.05978 21.8127H2.07724C2.08596 21.8127 2.09469 21.8127 2.09469 21.8127C2.10342 21.8127 2.12088 21.8041 2.1296 21.8041C2.13833 21.8041 2.15579 21.8041 2.16451 21.7955C2.17324 21.7955 2.17324 21.7955 2.18197 21.7955C2.1907 21.7955 2.1907 21.7955 2.19943 21.7955C2.20815 21.7955 2.20815 21.7955 2.21688 21.7955C2.22561 21.7955 2.23434 21.7955 2.23434 21.7955C2.24307 21.7955 2.24307 21.7955 2.25179 21.7955C2.26052 21.7955 2.26052 21.7955 2.26925 21.7955C2.27798 21.7955 2.27798 21.7955 2.28671 21.7955C2.29543 21.7955 2.29543 21.7955 2.30416 21.7955C2.31289 21.7955 2.31289 21.7955 2.32162 21.7955C2.33034 21.7955 2.33034 21.7955 2.33907 21.7955C2.3478 21.7955 2.36526 21.7955 2.37398 21.8041C2.38271 21.8041 2.40017 21.8041 2.4089 21.8127C2.41762 21.8127 2.42635 21.8127 2.42635 21.8127C2.43508 21.8127 2.43508 21.8127 2.44381 21.8127C2.46126 21.8127 2.47872 21.8213 2.49617 21.8213C2.5049 21.8213 2.5049 21.8213 2.51363 21.8299H2.52236C2.53109 21.8299 2.53109 21.8386 2.53981 21.8386C2.55727 21.8472 2.57473 21.8472 2.58345 21.8558C2.59218 21.8558 2.59218 21.8644 2.60091 21.8644C2.60964 21.8644 2.60964 21.873 2.61836 21.873C2.62709 21.873 2.63582 21.8816 2.63582 21.8816C2.63582 21.8816 2.64455 21.8816 2.64455 21.8903C2.662 21.8989 2.67946 21.9075 2.69692 21.9161C2.70564 21.9247 2.71437 21.9247 2.7231 21.9334C2.73183 21.942 2.74055 21.942 2.74928 21.9506C2.75801 21.9592 2.76674 21.9592 2.77547 21.9678C2.78419 21.9764 2.79292 21.9851 2.80165 21.9851C2.81038 21.9937 2.81911 22.0023 2.81911 22.0023C2.83656 22.0195 2.84529 22.0282 2.86275 22.0454C2.87147 22.054 2.87147 22.0626 2.8802 22.0712C2.88893 22.0885 2.89766 22.0971 2.90638 22.1143V22.123C2.91511 22.1402 2.92384 22.1574 2.93257 22.1747C2.93257 22.1833 2.9413 22.1919 2.9413 22.2005L3.34278 22.9848L3.69189 23.6742L3.76172 23.8207L4.33776 24.9583L4.87889 26.0184L5.15818 26.57C5.17563 26.6044 5.19309 26.6303 5.21055 26.6648C5.21927 26.6906 5.23673 26.7078 5.24546 26.7251C5.25418 26.7423 5.26291 26.7509 5.27164 26.7682C5.28037 26.7768 5.2891 26.794 5.29782 26.8026C5.30655 26.8113 5.30655 26.8199 5.31528 26.8285C5.31528 26.8371 5.32401 26.8371 5.32401 26.8457C5.33274 26.8544 5.33274 26.863 5.34146 26.8716C5.37638 26.9147 5.41129 26.9578 5.4462 27.0009C5.45493 27.0181 5.47238 27.0267 5.48111 27.044C5.48984 27.0526 5.50729 27.0698 5.51602 27.0784C5.52475 27.087 5.53348 27.0957 5.5422 27.1043C5.55093 27.1129 5.56839 27.1215 5.57712 27.1388C5.58584 27.1474 5.59457 27.156 5.6033 27.1646C5.61203 27.1732 5.61203 27.1732 5.62076 27.1818C5.63821 27.1905 5.64694 27.2077 5.6644 27.2163C5.67312 27.2249 5.69058 27.2336 5.69931 27.2422C5.71676 27.2594 5.73422 27.268 5.75167 27.2853C5.81277 27.3284 5.87386 27.3714 5.93496 27.4059C5.94369 27.4145 5.96114 27.4232 5.96987 27.4232C5.99605 27.4404 6.02224 27.449 6.04842 27.4662C6.05715 27.4749 6.0746 27.4835 6.08333 27.4835C6.09206 27.4921 6.10079 27.4921 6.11824 27.5007C6.12697 27.5093 6.14443 27.5093 6.16188 27.518C6.17061 27.5266 6.18807 27.5266 6.20552 27.5352C6.21425 27.5438 6.23171 27.5438 6.24044 27.5524C6.24044 27.5524 6.24916 27.5524 6.24916 27.561C6.28407 27.5783 6.31899 27.5869 6.3539 27.6041C6.36263 27.6041 6.36263 27.6128 6.37135 27.6128C6.38008 27.6128 6.38881 27.6214 6.39754 27.6214C6.41499 27.63 6.43245 27.63 6.4499 27.6386C6.46736 27.6472 6.47609 27.6472 6.49354 27.6558C6.50227 27.6558 6.511 27.6645 6.52846 27.6645C6.54591 27.6731 6.57209 27.6731 6.58955 27.6817C6.59828 27.6817 6.61573 27.6903 6.62446 27.6903C6.63319 27.6903 6.64192 27.6989 6.65065 27.6989C6.65937 27.6989 6.6681 27.7076 6.68556 27.7076C6.70301 27.7076 6.71174 27.7162 6.7292 27.7162C6.76411 27.7248 6.79029 27.7248 6.8252 27.7334C6.83393 27.7334 6.84266 27.7334 6.86011 27.742C6.90375 27.7506 6.94739 27.7506 6.99103 27.7593C7.00849 27.7593 7.01722 27.7593 7.03467 27.7593C7.0434 27.7593 7.06086 27.7593 7.06958 27.7593C7.07831 27.7593 7.07831 27.7593 7.08704 27.7593C7.09577 27.7593 7.1045 27.7593 7.11322 27.7593C7.12195 27.7593 7.13068 27.7593 7.13941 27.7593C7.14814 27.7593 7.15686 27.7593 7.16559 27.7593C7.17432 27.7593 7.18305 27.7593 7.19177 27.7593C7.2005 27.7593 7.20923 27.7593 7.21796 27.7593C7.22669 27.7593 7.23541 27.7593 7.24414 27.7593H7.29651C7.30524 27.7593 7.31396 27.7593 7.32269 27.7593C7.33142 27.7593 7.34015 27.7593 7.34888 27.7593C7.3576 27.7593 7.36633 27.7593 7.37506 27.7593C7.38379 27.7593 7.39252 27.7593 7.40124 27.7593C7.40997 27.7593 7.4187 27.7593 7.42743 27.7593C7.43615 27.7593 7.44488 27.7593 7.45361 27.7593C7.46234 27.7593 7.46234 27.7593 7.47107 27.7593C7.47979 27.7593 7.49725 27.7593 7.50598 27.7593C7.52343 27.7593 7.53216 27.7593 7.54962 27.7593C7.59326 27.7593 7.6369 27.7506 7.68054 27.742C7.68926 27.742 7.69799 27.742 7.71545 27.7334C7.75036 27.7248 7.78527 27.7248 7.81145 27.7162C7.82891 27.7162 7.84636 27.7076 7.85509 27.7076C7.86382 27.7076 7.87255 27.6989 7.89 27.6989C7.89873 27.6989 7.90746 27.6903 7.91619 27.6903C7.92492 27.6903 7.94237 27.6817 7.9511 27.6817C7.96856 27.6731 7.99474 27.6731 8.0122 27.6645C8.02092 27.6645 8.02965 27.6558 8.04711 27.6558C8.06456 27.6558 8.07329 27.6472 8.09075 27.6386C8.1082 27.63 8.12566 27.63 8.14311 27.6214C8.15184 27.6214 8.16057 27.6128 8.1693 27.6128C8.17803 27.6128 8.17803 27.6041 8.18675 27.6041H8.19548C8.23039 27.5955 8.25658 27.5783 8.29149 27.5697C8.29149 27.5697 8.30021 27.5697 8.30021 27.561C8.30894 27.5524 8.3264 27.5524 8.33513 27.5438C8.35258 27.5352 8.36131 27.5352 8.37877 27.5266C8.39622 27.518 8.40495 27.518 8.41368 27.5093C8.42241 27.5007 8.43113 27.5007 8.44859 27.4921C8.45732 27.4835 8.47477 27.4749 8.4835 27.4749C8.50968 27.4576 8.53587 27.449 8.56205 27.4318C8.57078 27.4232 8.58823 27.4145 8.59696 27.4145C8.65806 27.3801 8.71915 27.337 8.78025 27.2939C8.7977 27.2766 8.81516 27.268 8.83262 27.2508C8.84134 27.2422 8.8588 27.2336 8.86753 27.2249C8.88498 27.2163 8.89371 27.1991 8.91117 27.1905C8.9199 27.1818 8.9199 27.1818 8.92862 27.1732C8.93735 27.1646 8.94608 27.156 8.95481 27.1474C8.96353 27.1388 8.98099 27.1301 8.98972 27.1129C8.99845 27.1043 9.00717 27.0957 9.0159 27.087C9.02463 27.0784 9.04208 27.0612 9.05081 27.0526C9.06827 27.0353 9.077 27.0267 9.08572 27.0095C9.12064 26.9664 9.15555 26.9233 9.19046 26.8802C9.19919 26.8716 9.20791 26.863 9.20791 26.8544C9.20791 26.8457 9.21664 26.8457 9.21664 26.8371C9.22537 26.8285 9.22537 26.8199 9.2341 26.8113C9.24283 26.8026 9.25155 26.7854 9.26028 26.7768C9.26901 26.7682 9.27774 26.7509 9.28647 26.7337C9.30392 26.7165 9.31265 26.6906 9.32138 26.6734C9.33883 26.6389 9.35629 26.613 9.37374 26.5786L9.65304 26.027L10.1942 24.967L10.7702 23.8294L10.84 23.6828L11.1891 22.9934L11.5906 22.2091C11.5906 22.2005 11.5994 22.1919 11.5994 22.1833C11.6081 22.166 11.6168 22.1488 11.6255 22.1316V22.123C11.6343 22.1057 11.643 22.0971 11.6517 22.0799C11.6604 22.0712 11.6604 22.0626 11.6692 22.054C11.6779 22.0368 11.6954 22.0282 11.7128 22.0109C11.7215 22.0023 11.7303 21.9937 11.7303 21.9937C11.739 21.9851 11.7477 21.9764 11.7565 21.9764C11.7652 21.9678 11.7739 21.9678 11.7826 21.9592C11.7914 21.9506 11.8001 21.9506 11.8088 21.942C11.8176 21.9334 11.8263 21.9334 11.835 21.9247C11.8525 21.9161 11.8699 21.9075 11.8874 21.8989C11.8874 21.8989 11.8961 21.8989 11.8961 21.8903C11.9048 21.8903 11.9136 21.8816 11.9136 21.8816C11.9223 21.8816 11.9223 21.873 11.931 21.873C11.9397 21.873 11.9397 21.8644 11.9485 21.8644C11.9659 21.8558 11.9834 21.8472 11.9921 21.8472C12.0008 21.8472 12.0008 21.8386 12.0096 21.8386H12.0183C12.027 21.8386 12.027 21.8386 12.0357 21.8299C12.0532 21.8213 12.0707 21.8213 12.0881 21.8213C12.0968 21.8213 12.0968 21.8213 12.1056 21.8213C12.1143 21.8213 12.123 21.8213 12.123 21.8213C12.1318 21.8213 12.1492 21.8127 12.1579 21.8127C12.1667 21.8127 12.1841 21.8127 12.1929 21.8041C12.2016 21.8041 12.2016 21.8041 12.2103 21.8041C12.219 21.8041 12.219 21.8041 12.2278 21.8041C12.2365 21.8041 12.2365 21.8041 12.2452 21.8041C12.2539 21.8041 12.2539 21.8041 12.2627 21.8041C12.2714 21.8041 12.2801 21.8041 12.2801 21.8041C12.2889 21.8041 12.2889 21.8041 12.2976 21.8041C12.3063 21.8041 12.3063 21.8041 12.315 21.8041C12.3238 21.8041 12.3238 21.8041 12.3325 21.8041C12.3412 21.8041 12.3412 21.8041 12.35 21.8041C12.3587 21.8041 12.3587 21.8041 12.3674 21.8041C12.3761 21.8041 12.3936 21.8041 12.4023 21.8127C12.411 21.8127 12.4285 21.8127 12.4372 21.8213C12.446 21.8213 12.4547 21.8213 12.4547 21.8213H12.4721C12.4896 21.8213 12.5071 21.8299 12.5245 21.8299C12.5332 21.8299 12.5332 21.8299 12.542 21.8386H12.5507C12.5594 21.8386 12.5594 21.8472 12.5681 21.8472C12.5856 21.8558 12.6031 21.8558 12.6118 21.8644C12.6205 21.8644 12.6205 21.873 12.6292 21.873C12.638 21.873 12.638 21.8816 12.6467 21.8816C12.6554 21.8816 12.6642 21.8903 12.6642 21.8903C12.6642 21.8903 12.6729 21.8903 12.6729 21.8989C12.6903 21.9075 12.7078 21.9161 12.7253 21.9247C12.734 21.9334 12.7427 21.9334 12.7514 21.942C12.7602 21.9506 12.7689 21.9506 12.7776 21.9592C12.7863 21.9678 12.7951 21.9678 12.8038 21.9764C12.8125 21.9851 12.8213 21.9937 12.83 21.9937C12.8387 22.0023 12.8474 22.0109 12.8474 22.0109C12.8649 22.0282 12.8736 22.0368 12.8911 22.054C12.8998 22.0626 12.8998 22.0712 12.9085 22.0799C12.9173 22.0971 12.926 22.1057 12.9347 22.123V22.1316C12.9434 22.1488 12.9522 22.166 12.9609 22.1833C12.9609 22.1919 12.9696 22.2005 12.9696 22.2091L13.0133 22.3039C13.022 22.3384 13.022 22.3729 13.022 22.416V27.7679H13.7726C13.9646 27.7679 14.1654 27.7076 14.3137 27.5869C14.4534 27.4749 14.5319 27.3197 14.5319 27.1732V25.915L14.6628 24.6481Z" fill="white"/>
    <path d="M122.391 14.2114C122.391 14.7889 122.862 15.2542 123.447 15.2542C124.032 15.2542 124.503 14.7889 124.503 14.2114C124.503 13.634 124.032 13.1686 123.447 13.1686C122.862 13.1686 122.391 13.634 122.391 14.2114Z" fill="white"/>
    <path d="M129.565 14.2114C129.565 14.7889 130.037 15.2542 130.621 15.2542C131.206 15.2542 131.678 14.7889 131.678 14.2114C131.678 13.634 131.206 13.1686 130.621 13.1686C130.037 13.1686 129.565 13.634 129.565 14.2114Z" fill="white"/>
    <path d="M125.978 14.2114C125.978 14.7889 126.45 15.2542 127.034 15.2542C127.619 15.2542 128.09 14.7889 128.09 14.2114C128.09 13.634 127.619 13.1686 127.034 13.1686C126.45 13.1686 125.978 13.634 125.978 14.2114Z" fill="white"/>
    <path d="M144.848 8.27349L142.177 10.9537C142.125 11.0055 142.072 11.0658 142.029 11.1347C141.915 11.3157 141.854 11.5226 141.854 11.738V15.6334C141.854 15.9265 141.968 16.2022 142.177 16.4177L144.848 19.098C145.267 19.5203 145.991 19.2272 145.991 18.6326V8.73025C146 8.14421 145.276 7.85119 144.848 8.27349Z" fill="white"/>
    <path d="M136.452 6.36024H136.129L136.137 3.05085V2.62855C136.137 1.90462 135.841 1.24964 135.361 0.775639C134.881 0.301637 134.217 0 133.484 0H114.562C113.829 0 113.166 0.293019 112.686 0.767021C112.206 1.24102 111.909 1.89601 111.909 2.61994V27.3714C111.909 28.0954 112.206 28.7504 112.686 29.2244C113.166 29.6984 113.829 29.9914 114.562 29.9914H133.484C134.217 29.9914 134.881 29.6984 135.361 29.2244C135.736 28.8538 136.007 28.3625 136.103 27.8282V23.5967H134.427V27.3801C134.427 27.6386 134.322 27.8713 134.148 28.0437C133.973 28.216 133.737 28.3194 133.484 28.3194H114.562C114.3 28.3194 114.065 28.216 113.89 28.0437C113.716 27.8713 113.611 27.6386 113.611 27.3887V2.62855C113.611 2.37001 113.716 2.13732 113.89 1.96495C114.065 1.79259 114.3 1.68917 114.562 1.68917H133.484C133.746 1.68917 133.982 1.79259 134.148 1.95633C134.322 2.1287 134.427 2.36139 134.427 2.61132V20.2873H123.063C120.986 20.2873 119.31 18.624 119.31 16.5814V11.5915C119.31 9.54036 120.995 7.88566 123.063 7.88566H132.646V6.36024H122.88C120.043 6.36024 117.748 8.62683 117.748 11.4278V16.771C117.748 16.8745 117.757 16.9865 117.757 17.0899V23.2088L117.748 26.1907C118.341 24.0362 120.296 22.3556 122.714 21.9937C122.993 21.9592 123.412 21.8903 125.062 21.8386C125.132 21.8386 125.21 21.8299 125.289 21.8299H136.452C139.288 21.8299 140.571 19.5633 140.571 16.7624V11.4191C140.571 8.62683 139.28 6.36024 136.452 6.36024Z" fill="white"/>
</svg>
