<svg width="175" height="56" viewBox="0 0 175 56" fill="none" xmlns="http://www.w3.org/2000/svg">
<rect width="175" height="56" fill="#1F2251"/>
<path d="M20.8281 22.0469V32H18.9551V22.0469H20.8281ZM23.918 22.0469V23.5303H15.8994V22.0469H23.918ZM26.8027 21.5V32H24.9912V21.5H26.8027ZM26.5156 28.0352H25.9824C25.9824 27.5202 26.0508 27.0462 26.1875 26.6133C26.3242 26.1803 26.5179 25.8044 26.7686 25.4854C27.0192 25.1618 27.3177 24.9111 27.6641 24.7334C28.015 24.5557 28.4023 24.4668 28.8262 24.4668C29.1908 24.4668 29.5212 24.5192 29.8174 24.624C30.1182 24.7243 30.3757 24.8861 30.5898 25.1094C30.804 25.3327 30.9681 25.6243 31.082 25.9844C31.2005 26.3398 31.2598 26.7728 31.2598 27.2832V32H29.4414V27.2695C29.4414 26.9277 29.3913 26.6589 29.291 26.4629C29.1908 26.2624 29.0472 26.1188 28.8604 26.0322C28.6781 25.9456 28.4525 25.9023 28.1836 25.9023C27.8919 25.9023 27.6413 25.9593 27.4316 26.0732C27.222 26.1826 27.0488 26.3353 26.9121 26.5312C26.7799 26.7272 26.6797 26.9528 26.6113 27.208C26.5475 27.4632 26.5156 27.7389 26.5156 28.0352ZM36.9268 30.4277V27.0166C36.9268 26.766 36.8835 26.5495 36.7969 26.3672C36.7103 26.1849 36.5781 26.0436 36.4004 25.9434C36.2227 25.8431 35.9971 25.793 35.7236 25.793C35.4821 25.793 35.2702 25.834 35.0879 25.916C34.9102 25.998 34.7734 26.1143 34.6777 26.2646C34.582 26.4105 34.5342 26.5791 34.5342 26.7705H32.7227C32.7227 26.4652 32.7956 26.1758 32.9414 25.9023C33.0872 25.6243 33.2946 25.3783 33.5635 25.1641C33.8369 24.9453 34.1628 24.7744 34.541 24.6514C34.9238 24.5283 35.3522 24.4668 35.8262 24.4668C36.3867 24.4668 36.8857 24.5625 37.3232 24.7539C37.7653 24.9408 38.1117 25.2233 38.3623 25.6016C38.6175 25.9798 38.7451 26.4561 38.7451 27.0303V30.2568C38.7451 30.626 38.7679 30.9427 38.8135 31.207C38.8636 31.4668 38.9365 31.6924 39.0322 31.8838V32H37.1934C37.1068 31.8132 37.0407 31.5762 36.9951 31.2891C36.9495 30.9974 36.9268 30.7103 36.9268 30.4277ZM37.1797 27.4951L37.1934 28.5684H36.0518C35.7692 28.5684 35.5208 28.598 35.3066 28.6572C35.0924 28.7119 34.917 28.7939 34.7803 28.9033C34.6436 29.0081 34.541 29.1357 34.4727 29.2861C34.4043 29.432 34.3701 29.5983 34.3701 29.7852C34.3701 29.9674 34.4111 30.1315 34.4932 30.2773C34.5798 30.4232 34.7028 30.5394 34.8623 30.626C35.0264 30.708 35.2178 30.749 35.4365 30.749C35.7555 30.749 36.0335 30.6852 36.2705 30.5576C36.5075 30.4255 36.6921 30.266 36.8242 30.0791C36.9564 29.8923 37.027 29.7145 37.0361 29.5459L37.5557 30.3252C37.4919 30.512 37.3962 30.7103 37.2686 30.9199C37.141 31.1296 36.9769 31.3255 36.7764 31.5078C36.5758 31.6901 36.3343 31.8405 36.0518 31.959C35.7692 32.0775 35.4411 32.1367 35.0674 32.1367C34.5889 32.1367 34.1605 32.041 33.7822 31.8496C33.404 31.6582 33.1055 31.3962 32.8867 31.0635C32.668 30.7308 32.5586 30.3525 32.5586 29.9287C32.5586 29.5368 32.6315 29.1904 32.7773 28.8896C32.9232 28.5889 33.1396 28.3359 33.4268 28.1309C33.7139 27.9212 34.0693 27.764 34.4932 27.6592C34.9215 27.5498 35.4115 27.4951 35.9629 27.4951H37.1797ZM40.0508 28.377V28.2334C40.0508 27.6911 40.1283 27.1921 40.2832 26.7363C40.4382 26.276 40.6637 25.8773 40.96 25.54C41.2562 25.2028 41.6185 24.9408 42.0469 24.7539C42.4753 24.5625 42.9629 24.4668 43.5098 24.4668C44.0658 24.4668 44.5579 24.5625 44.9863 24.7539C45.4193 24.9408 45.7839 25.2028 46.0801 25.54C46.3763 25.8773 46.6019 26.276 46.7568 26.7363C46.9118 27.1921 46.9893 27.6911 46.9893 28.2334V28.377C46.9893 28.9147 46.9118 29.4137 46.7568 29.874C46.6019 30.3298 46.3763 30.7285 46.0801 31.0703C45.7839 31.4076 45.4215 31.6696 44.9932 31.8564C44.5648 32.0433 44.0749 32.1367 43.5234 32.1367C42.9766 32.1367 42.4867 32.0433 42.0537 31.8564C41.6208 31.6696 41.2562 31.4076 40.96 31.0703C40.6637 30.7285 40.4382 30.3298 40.2832 29.874C40.1283 29.4137 40.0508 28.9147 40.0508 28.377ZM41.8555 28.2334V28.377C41.8555 28.7005 41.8874 29.0036 41.9512 29.2861C42.015 29.5687 42.113 29.8171 42.2451 30.0312C42.3773 30.2454 42.5482 30.4141 42.7578 30.5371C42.972 30.6556 43.2272 30.7148 43.5234 30.7148C43.8151 30.7148 44.0658 30.6556 44.2754 30.5371C44.485 30.4141 44.6559 30.2454 44.7881 30.0312C44.9248 29.8171 45.0251 29.5687 45.0889 29.2861C45.1527 29.0036 45.1846 28.7005 45.1846 28.377V28.2334C45.1846 27.9144 45.1527 27.6159 45.0889 27.3379C45.0251 27.0553 44.9248 26.807 44.7881 26.5928C44.6559 26.374 44.4827 26.2031 44.2686 26.0801C44.0589 25.9525 43.806 25.8887 43.5098 25.8887C43.2181 25.8887 42.9674 25.9525 42.7578 26.0801C42.5482 26.2031 42.3773 26.374 42.2451 26.5928C42.113 26.807 42.015 27.0553 41.9512 27.3379C41.8874 27.6159 41.8555 27.9144 41.8555 28.2334ZM55.2881 24.6035V25.9023H51.0498V24.6035H55.2881ZM52.1846 22.7852H53.9961V29.8672C53.9961 30.0859 54.0257 30.2546 54.085 30.373C54.1442 30.4915 54.2331 30.5713 54.3516 30.6123C54.4701 30.6533 54.6113 30.6738 54.7754 30.6738C54.8939 30.6738 55.0033 30.667 55.1035 30.6533C55.2038 30.6396 55.2881 30.626 55.3564 30.6123L55.3633 31.9658C55.2129 32.016 55.042 32.057 54.8506 32.0889C54.6637 32.1208 54.4518 32.1367 54.2148 32.1367C53.8092 32.1367 53.4538 32.0684 53.1484 31.9316C52.8431 31.7904 52.6061 31.5648 52.4375 31.2549C52.2689 30.9404 52.1846 30.5257 52.1846 30.0107V22.7852ZM60.5654 30.4277V27.0166C60.5654 26.766 60.5221 26.5495 60.4355 26.3672C60.349 26.1849 60.2168 26.0436 60.0391 25.9434C59.8613 25.8431 59.6357 25.793 59.3623 25.793C59.1208 25.793 58.9089 25.834 58.7266 25.916C58.5488 25.998 58.4121 26.1143 58.3164 26.2646C58.2207 26.4105 58.1729 26.5791 58.1729 26.7705H56.3613C56.3613 26.4652 56.4342 26.1758 56.5801 25.9023C56.7259 25.6243 56.9333 25.3783 57.2021 25.1641C57.4756 24.9453 57.8014 24.7744 58.1797 24.6514C58.5625 24.5283 58.9909 24.4668 59.4648 24.4668C60.0254 24.4668 60.5244 24.5625 60.9619 24.7539C61.404 24.9408 61.7503 25.2233 62.001 25.6016C62.2562 25.9798 62.3838 26.4561 62.3838 27.0303V30.2568C62.3838 30.626 62.4066 30.9427 62.4521 31.207C62.5023 31.4668 62.5752 31.6924 62.6709 31.8838V32H60.832C60.7454 31.8132 60.6794 31.5762 60.6338 31.2891C60.5882 30.9974 60.5654 30.7103 60.5654 30.4277ZM60.8184 27.4951L60.832 28.5684H59.6904C59.4079 28.5684 59.1595 28.598 58.9453 28.6572C58.7311 28.7119 58.5557 28.7939 58.4189 28.9033C58.2822 29.0081 58.1797 29.1357 58.1113 29.2861C58.043 29.432 58.0088 29.5983 58.0088 29.7852C58.0088 29.9674 58.0498 30.1315 58.1318 30.2773C58.2184 30.4232 58.3415 30.5394 58.501 30.626C58.665 30.708 58.8564 30.749 59.0752 30.749C59.3942 30.749 59.6722 30.6852 59.9092 30.5576C60.1462 30.4255 60.3307 30.266 60.4629 30.0791C60.5951 29.8923 60.6657 29.7145 60.6748 29.5459L61.1943 30.3252C61.1305 30.512 61.0348 30.7103 60.9072 30.9199C60.7796 31.1296 60.6156 31.3255 60.415 31.5078C60.2145 31.6901 59.973 31.8405 59.6904 31.959C59.4079 32.0775 59.0798 32.1367 58.7061 32.1367C58.2275 32.1367 57.7992 32.041 57.4209 31.8496C57.0426 31.6582 56.7441 31.3962 56.5254 31.0635C56.3066 30.7308 56.1973 30.3525 56.1973 29.9287C56.1973 29.5368 56.2702 29.1904 56.416 28.8896C56.5618 28.5889 56.7783 28.3359 57.0654 28.1309C57.3525 27.9212 57.708 27.764 58.1318 27.6592C58.5602 27.5498 59.0501 27.4951 59.6016 27.4951H60.8184ZM58.6104 23.5781L59.9502 21.5H61.9463L60.0801 23.5781H58.6104ZM67.0459 30.7148C67.3011 30.7148 67.529 30.6647 67.7295 30.5645C67.93 30.4642 68.0895 30.3229 68.208 30.1406C68.3311 29.9583 68.3971 29.7464 68.4062 29.5049H70.1084C70.0993 30.0062 69.958 30.4551 69.6846 30.8516C69.4111 31.248 69.0465 31.5625 68.5908 31.7949C68.1396 32.0228 67.6338 32.1367 67.0732 32.1367C66.5036 32.1367 66.0068 32.041 65.583 31.8496C65.1592 31.6582 64.806 31.3916 64.5234 31.0498C64.2454 30.708 64.0358 30.3115 63.8945 29.8604C63.7578 29.4092 63.6895 28.9261 63.6895 28.4111V28.1924C63.6895 27.6774 63.7578 27.1943 63.8945 26.7432C64.0358 26.292 64.2454 25.8955 64.5234 25.5537C64.806 25.2119 65.1592 24.9453 65.583 24.7539C66.0068 24.5625 66.5013 24.4668 67.0664 24.4668C67.6634 24.4668 68.1875 24.583 68.6387 24.8154C69.0944 25.0479 69.4499 25.376 69.7051 25.7998C69.9648 26.2236 70.0993 26.7227 70.1084 27.2969H68.4062C68.3971 27.0326 68.3379 26.7956 68.2285 26.5859C68.1191 26.3763 67.9642 26.2077 67.7637 26.0801C67.5632 25.9525 67.3193 25.8887 67.0322 25.8887C66.7269 25.8887 66.4717 25.9525 66.2666 26.0801C66.0661 26.2077 65.9089 26.3831 65.7949 26.6064C65.6855 26.8252 65.6081 27.0713 65.5625 27.3447C65.5215 27.6136 65.501 27.8962 65.501 28.1924V28.4111C65.501 28.7119 65.5215 28.999 65.5625 29.2725C65.6081 29.5459 65.6855 29.792 65.7949 30.0107C65.9089 30.2249 66.0661 30.3958 66.2666 30.5234C66.4717 30.651 66.7314 30.7148 67.0459 30.7148Z" fill="white"/>
</svg>
