<svg width="157" height="56" viewBox="0 0 157 56" fill="none" xmlns="http://www.w3.org/2000/svg">
<rect width="157" height="56" fill="#1F2251"/>
<path d="M19.2227 22.0469V32H17.3496V22.0469H19.2227ZM22.3125 22.0469V23.5303H14.2939V22.0469H22.3125ZM25.1973 21.5V32H23.3857V21.5H25.1973ZM24.9102 28.0352H24.377C24.377 27.5202 24.4453 27.0462 24.582 26.6133C24.7188 26.1803 24.9124 25.8044 25.1631 25.4854C25.4137 25.1618 25.7122 24.9111 26.0586 24.7334C26.4095 24.5557 26.7969 24.4668 27.2207 24.4668C27.5853 24.4668 27.9157 24.5192 28.2119 24.624C28.5127 24.7243 28.7702 24.8861 28.9844 25.1094C29.1986 25.3327 29.3626 25.6243 29.4766 25.9844C29.5951 26.3398 29.6543 26.7728 29.6543 27.2832V32H27.8359V27.2695C27.8359 26.9277 27.7858 26.6589 27.6855 26.4629C27.5853 26.2624 27.4417 26.1188 27.2549 26.0322C27.0726 25.9456 26.847 25.9023 26.5781 25.9023C26.2865 25.9023 26.0358 25.9593 25.8262 26.0732C25.6165 26.1826 25.4434 26.3353 25.3066 26.5312C25.1745 26.7272 25.0742 26.9528 25.0059 27.208C24.9421 27.4632 24.9102 27.7389 24.9102 28.0352ZM35.3213 30.4277V27.0166C35.3213 26.766 35.278 26.5495 35.1914 26.3672C35.1048 26.1849 34.9727 26.0436 34.7949 25.9434C34.6172 25.8431 34.3916 25.793 34.1182 25.793C33.8766 25.793 33.6647 25.834 33.4824 25.916C33.3047 25.998 33.168 26.1143 33.0723 26.2646C32.9766 26.4105 32.9287 26.5791 32.9287 26.7705H31.1172C31.1172 26.4652 31.1901 26.1758 31.3359 25.9023C31.4818 25.6243 31.6891 25.3783 31.958 25.1641C32.2314 24.9453 32.5573 24.7744 32.9355 24.6514C33.3184 24.5283 33.7467 24.4668 34.2207 24.4668C34.7812 24.4668 35.2803 24.5625 35.7178 24.7539C36.1598 24.9408 36.5062 25.2233 36.7568 25.6016C37.012 25.9798 37.1396 26.4561 37.1396 27.0303V30.2568C37.1396 30.626 37.1624 30.9427 37.208 31.207C37.2581 31.4668 37.3311 31.6924 37.4268 31.8838V32H35.5879C35.5013 31.8132 35.4352 31.5762 35.3896 31.2891C35.3441 30.9974 35.3213 30.7103 35.3213 30.4277ZM35.5742 27.4951L35.5879 28.5684H34.4463C34.1637 28.5684 33.9154 28.598 33.7012 28.6572C33.487 28.7119 33.3115 28.7939 33.1748 28.9033C33.0381 29.0081 32.9355 29.1357 32.8672 29.2861C32.7988 29.432 32.7646 29.5983 32.7646 29.7852C32.7646 29.9674 32.8057 30.1315 32.8877 30.2773C32.9743 30.4232 33.0973 30.5394 33.2568 30.626C33.4209 30.708 33.6123 30.749 33.8311 30.749C34.1501 30.749 34.4281 30.6852 34.665 30.5576C34.902 30.4255 35.0866 30.266 35.2188 30.0791C35.3509 29.8923 35.4215 29.7145 35.4307 29.5459L35.9502 30.3252C35.8864 30.512 35.7907 30.7103 35.6631 30.9199C35.5355 31.1296 35.3714 31.3255 35.1709 31.5078C34.9704 31.6901 34.7288 31.8405 34.4463 31.959C34.1637 32.0775 33.8356 32.1367 33.4619 32.1367C32.9834 32.1367 32.555 32.041 32.1768 31.8496C31.7985 31.6582 31.5 31.3962 31.2812 31.0635C31.0625 30.7308 30.9531 30.3525 30.9531 29.9287C30.9531 29.5368 31.026 29.1904 31.1719 28.8896C31.3177 28.5889 31.5342 28.3359 31.8213 28.1309C32.1084 27.9212 32.4639 27.764 32.8877 27.6592C33.3161 27.5498 33.806 27.4951 34.3574 27.4951H35.5742ZM38.4453 28.377V28.2334C38.4453 27.6911 38.5228 27.1921 38.6777 26.7363C38.8327 26.276 39.0583 25.8773 39.3545 25.54C39.6507 25.2028 40.013 24.9408 40.4414 24.7539C40.8698 24.5625 41.3574 24.4668 41.9043 24.4668C42.4603 24.4668 42.9525 24.5625 43.3809 24.7539C43.8138 24.9408 44.1784 25.2028 44.4746 25.54C44.7708 25.8773 44.9964 26.276 45.1514 26.7363C45.3063 27.1921 45.3838 27.6911 45.3838 28.2334V28.377C45.3838 28.9147 45.3063 29.4137 45.1514 29.874C44.9964 30.3298 44.7708 30.7285 44.4746 31.0703C44.1784 31.4076 43.8161 31.6696 43.3877 31.8564C42.9593 32.0433 42.4694 32.1367 41.918 32.1367C41.3711 32.1367 40.8812 32.0433 40.4482 31.8564C40.0153 31.6696 39.6507 31.4076 39.3545 31.0703C39.0583 30.7285 38.8327 30.3298 38.6777 29.874C38.5228 29.4137 38.4453 28.9147 38.4453 28.377ZM40.25 28.2334V28.377C40.25 28.7005 40.2819 29.0036 40.3457 29.2861C40.4095 29.5687 40.5075 29.8171 40.6396 30.0312C40.7718 30.2454 40.9427 30.4141 41.1523 30.5371C41.3665 30.6556 41.6217 30.7148 41.918 30.7148C42.2096 30.7148 42.4603 30.6556 42.6699 30.5371C42.8796 30.4141 43.0505 30.2454 43.1826 30.0312C43.3193 29.8171 43.4196 29.5687 43.4834 29.2861C43.5472 29.0036 43.5791 28.7005 43.5791 28.377V28.2334C43.5791 27.9144 43.5472 27.6159 43.4834 27.3379C43.4196 27.0553 43.3193 26.807 43.1826 26.5928C43.0505 26.374 42.8773 26.2031 42.6631 26.0801C42.4535 25.9525 42.2005 25.8887 41.9043 25.8887C41.6126 25.8887 41.362 25.9525 41.1523 26.0801C40.9427 26.2031 40.7718 26.374 40.6396 26.5928C40.5075 26.807 40.4095 27.0553 40.3457 27.3379C40.2819 27.6159 40.25 27.9144 40.25 28.2334ZM53.6826 24.6035V25.9023H49.4443V24.6035H53.6826ZM50.5791 22.7852H52.3906V29.8672C52.3906 30.0859 52.4202 30.2546 52.4795 30.373C52.5387 30.4915 52.6276 30.5713 52.7461 30.6123C52.8646 30.6533 53.0059 30.6738 53.1699 30.6738C53.2884 30.6738 53.3978 30.667 53.498 30.6533C53.5983 30.6396 53.6826 30.626 53.751 30.6123L53.7578 31.9658C53.6074 32.016 53.4365 32.057 53.2451 32.0889C53.0583 32.1208 52.8464 32.1367 52.6094 32.1367C52.2038 32.1367 51.8483 32.0684 51.543 31.9316C51.2376 31.7904 51.0007 31.5648 50.832 31.2549C50.6634 30.9404 50.5791 30.5257 50.5791 30.0107V22.7852ZM58.96 30.4277V27.0166C58.96 26.766 58.9167 26.5495 58.8301 26.3672C58.7435 26.1849 58.6113 26.0436 58.4336 25.9434C58.2559 25.8431 58.0303 25.793 57.7568 25.793C57.5153 25.793 57.3034 25.834 57.1211 25.916C56.9434 25.998 56.8066 26.1143 56.7109 26.2646C56.6152 26.4105 56.5674 26.5791 56.5674 26.7705H54.7559C54.7559 26.4652 54.8288 26.1758 54.9746 25.9023C55.1204 25.6243 55.3278 25.3783 55.5967 25.1641C55.8701 24.9453 56.196 24.7744 56.5742 24.6514C56.957 24.5283 57.3854 24.4668 57.8594 24.4668C58.4199 24.4668 58.9189 24.5625 59.3564 24.7539C59.7985 24.9408 60.1449 25.2233 60.3955 25.6016C60.6507 25.9798 60.7783 26.4561 60.7783 27.0303V30.2568C60.7783 30.626 60.8011 30.9427 60.8467 31.207C60.8968 31.4668 60.9697 31.6924 61.0654 31.8838V32H59.2266C59.14 31.8132 59.0739 31.5762 59.0283 31.2891C58.9827 30.9974 58.96 30.7103 58.96 30.4277ZM59.2129 27.4951L59.2266 28.5684H58.085C57.8024 28.5684 57.554 28.598 57.3398 28.6572C57.1257 28.7119 56.9502 28.7939 56.8135 28.9033C56.6768 29.0081 56.5742 29.1357 56.5059 29.2861C56.4375 29.432 56.4033 29.5983 56.4033 29.7852C56.4033 29.9674 56.4443 30.1315 56.5264 30.2773C56.613 30.4232 56.736 30.5394 56.8955 30.626C57.0596 30.708 57.251 30.749 57.4697 30.749C57.7887 30.749 58.0667 30.6852 58.3037 30.5576C58.5407 30.4255 58.7253 30.266 58.8574 30.0791C58.9896 29.8923 59.0602 29.7145 59.0693 29.5459L59.5889 30.3252C59.5251 30.512 59.4294 30.7103 59.3018 30.9199C59.1742 31.1296 59.0101 31.3255 58.8096 31.5078C58.609 31.6901 58.3675 31.8405 58.085 31.959C57.8024 32.0775 57.4743 32.1367 57.1006 32.1367C56.6221 32.1367 56.1937 32.041 55.8154 31.8496C55.4372 31.6582 55.1387 31.3962 54.9199 31.0635C54.7012 30.7308 54.5918 30.3525 54.5918 29.9287C54.5918 29.5368 54.6647 29.1904 54.8105 28.8896C54.9564 28.5889 55.1729 28.3359 55.46 28.1309C55.7471 27.9212 56.1025 27.764 56.5264 27.6592C56.9548 27.5498 57.4447 27.4951 57.9961 27.4951H59.2129ZM57.0049 23.5781L58.3447 21.5H60.3408L58.4746 23.5781H57.0049ZM65.4404 30.7148C65.6956 30.7148 65.9235 30.6647 66.124 30.5645C66.3245 30.4642 66.484 30.3229 66.6025 30.1406C66.7256 29.9583 66.7917 29.7464 66.8008 29.5049H68.5029C68.4938 30.0062 68.3525 30.4551 68.0791 30.8516C67.8057 31.248 67.4411 31.5625 66.9854 31.7949C66.5342 32.0228 66.0283 32.1367 65.4678 32.1367C64.8981 32.1367 64.4014 32.041 63.9775 31.8496C63.5537 31.6582 63.2005 31.3916 62.918 31.0498C62.64 30.708 62.4303 30.3115 62.2891 29.8604C62.1523 29.4092 62.084 28.9261 62.084 28.4111V28.1924C62.084 27.6774 62.1523 27.1943 62.2891 26.7432C62.4303 26.292 62.64 25.8955 62.918 25.5537C63.2005 25.2119 63.5537 24.9453 63.9775 24.7539C64.4014 24.5625 64.8958 24.4668 65.4609 24.4668C66.0579 24.4668 66.582 24.583 67.0332 24.8154C67.4889 25.0479 67.8444 25.376 68.0996 25.7998C68.3594 26.2236 68.4938 26.7227 68.5029 27.2969H66.8008C66.7917 27.0326 66.7324 26.7956 66.623 26.5859C66.5137 26.3763 66.3587 26.2077 66.1582 26.0801C65.9577 25.9525 65.7139 25.8887 65.4268 25.8887C65.1214 25.8887 64.8662 25.9525 64.6611 26.0801C64.4606 26.2077 64.3034 26.3831 64.1895 26.6064C64.0801 26.8252 64.0026 27.0713 63.957 27.3447C63.916 27.6136 63.8955 27.8962 63.8955 28.1924V28.4111C63.8955 28.7119 63.916 28.999 63.957 29.2725C64.0026 29.5459 64.0801 29.792 64.1895 30.0107C64.3034 30.2249 64.4606 30.3958 64.6611 30.5234C64.8662 30.651 65.126 30.7148 65.4404 30.7148Z" fill="white"/>
</svg>
